<?xml version="1.0" encoding="utf-8"?>
<!-- Generator: Adobe Illustrator 26.0.1, SVG Export Plug-In . SVG Version: 6.00 Build 0)  -->
<svg version="1.1" id="Capa_1" xmlns="http://www.w3.org/2000/svg" xmlns:xlink="http://www.w3.org/1999/xlink" x="0px" y="0px"
	 viewBox="0 0 193.5 200" style="enable-background:new 0 0 193.5 200;" xml:space="preserve">
<style type="text/css">
	.st0{fill-rule:evenodd;clip-rule:evenodd;fill:#212741;}
	.st1{fill:#212741;}
	.st2{fill-rule:evenodd;clip-rule:evenodd;fill:#FFFFFF;}
	.st3{fill-rule:evenodd;clip-rule:evenodd;fill:#3E2DB0;fill-opacity:0.4;}
	.st4{fill-rule:evenodd;clip-rule:evenodd;fill:#3E2DB0;fill-opacity:0.2;}
	.st5{fill-rule:evenodd;clip-rule:evenodd;fill:#FFB20C;}
</style>
<g>
	<path class="st0" d="M50.7,180c0.1,0,0.8,0,0.8,0c4.3-1.8,3.4-6.2,3.4-10.3c5.3-1.3,7.4-2.1,12.3-4.1c6.3-2.6,18.5-0.2,19.3,1.9
		c2.1,5.5-14.7,19.5-33.4,14.6c-6.8,0.1-14.1,0.8-19.8,0.9c-8,0-13.2-0.8-13.9-2c0.8-1.5,6.8-1.3,8.2-1.6c1.1-2.8,0.7-6.4,0.7-10.1
		l8,0C36.6,179.4,41.4,179.5,50.7,180L50.7,180z M36.4,163.9l-12.4,0.5c-1.3,3.4-0.9,5.8-0.9,10.2c-5.7,0-7.8,0.2-8-5.9
		c-0.5-17.5,0.2-11.7,16-12.8v-4.3c-1-0.9,0.3-0.3-1.4-0.8c-0.5-0.2-1.5-0.1-2.3-0.2l5.5-9.3c2.8,1.2,2.7,1.3,6.1,1.4
		c9.2,0.3,16.2,0.6,23.5-2c2.8,7.8,5.8,9.4,5.8,19c-3,0.8-5.7,2.2-8.6,3.3c-2.5,0.9-2.2,0.7-5,0.9c-5.6,0.4-5,0.5-5,10.7
		c-5.3,0-7.8-0.4-8-5.9c-0.1-3.7-0.2-9.3,0.7-12.6l15.3-0.1v-5.3C42.7,150.7,36.4,147.6,36.4,163.9z M31,103.2c0-2.6,3.1-3,6.1-3
		c9.1,0,21.1-1.4,25.7,1.8c0,18.9,2,15.6-2.9,30.8c-1.8,5.4-2.6,4.7-10.3,4.7l-13.4-0.3C29.6,128.9,31,113.4,31,103.2L31,103.2z
		 M68.4,105.4l9.9,6.2l-4.1,9.9l-6-0.1L68.4,105.4L68.4,105.4z M15.8,112.1c2-1.7,7.1-5.3,9.9-6.4v14.8c-0.9,0-5.2,0.6-6,0.3
		C18.4,120.3,18.6,119,15.8,112.1z M92,167.5c-1.1-7.6-10.6-7.5-18.4-8.3c0-12.9-7.5-19.4-8.1-24.7c-0.2-2,1-6.2,2.7-7.5l9.5-0.6
		c1.9-2,6.5-12.9,6.1-16.7c-3.4-3.3-11.1-7.9-15.5-10.8c-8-5.2-11-3.9-21.5-3.9c-11.2,0-13.5-1.4-21.7,4.3
		c-4.5,3.1-11.6,7.2-15.3,10.4c1.1,3.4,4.5,15.1,7.3,15.7c2.7,0.5,6.7-0.5,7.7-0.4c2.3,0.1,3.9,9.1,3.9,9.5c-0.1,0.8-3.5,8.1-4,9.3
		c-4.1,8.8-1.9,6.7-6.9,7.2c-10.8,1-7.9,14.8-7.9,22.5c2.8,8.3,2.4,10.5,9.5,14.8c3.1,1.5,23.3-1.1,33.8-1.8
		C74.6,193.8,92.2,176.9,92,167.5L92,167.5z"/>
	<path class="st0" d="M67.7,66.3c-1.9-0.8-12.5-2-10.9-12.8c0.7-4.7,3.4-4.9,4.7-7.6c1.2-2.6-2.1-26.5,19.4-34
		c14.1-4.5,28.9-1.8,38.7,9.6c3.9,4.6,11.7,1.3,17.3,11.9c3.5,6.5,2.1,19.1,2.1,27.2c0,6.4,0.7,18-0.5,22.6
		c-8.9,1.7-19.8-5-21.5-10.1c0.9-1.8,1.9-3.7,2.2-4.8c2.6,4.2,8.8,8.7,14.5,9.5c0-10.6,0-15.1,0-25.7c0-10.6,0.3-20.8-9.6-22.7
		c4.3,15.7-1.5,12.6,3.6,18.2c6,6.5,4.2,16.9-7.7,18.4c-2.9,8.6-8.7,17.8-18.2,20.2C86.8,88.4,72.9,80.7,67.7,66.3L67.7,66.3z
		 M114.9,62.6c0.6-6.4,0.7-13.6-1.8-18.4c-2.2-4.2-4.4-10-7.1-13.7L90.3,40.6c-4.5,2.6-11.9,6.6-17.7,7.9
		c-0.3,7.8-0.3,11.5,0.9,16.9C78,86.4,112.7,87.9,114.9,62.6z M120.3,50c7.1,1,7.2,9.6,0,10.4L120.3,50z M67.2,60.2
		c-6.9,0.7-6.8-10.6,0-9.9L67.2,60.2z M67.2,44.3c0-18.4,8.1-29.1,27.4-28.9c19.8,0.1,28.4,16.5,25.3,29.2
		c-4.5-3.8-7.3-18.1-12.5-21.2C105.1,23,83.1,42.2,67.2,44.3z"/>
	<path class="st0" d="M101.7,64.7c-9.3,0-3.5,2.1-7.9,2.4c-4.3,0.3,0.7-2.4-8.1-2.4C87.2,75.4,100.2,75.4,101.7,64.7L101.7,64.7z"/>
	<path class="st1" d="M39.8,114.6c1.7,0,3.1-1.4,3.1-3.1s-1.4-3.1-3.1-3.1s-3.1,1.4-3.1,3.1S38.1,114.6,39.8,114.6z"/>
	<path class="st1" d="M54.3,114.6c1.7,0,3.1-1.4,3.1-3.1c0-1.7-1.4-3.1-3.1-3.1c-1.7,0-3.1,1.4-3.1,3.1
		C51.3,113.3,52.6,114.6,54.3,114.6z"/>
	<path class="st1" d="M83.9,56.4c2.3,0,4.2-1.9,4.2-4.2c0-2.3-1.9-4.2-4.2-4.2c-2.3,0-4.2,1.9-4.2,4.2
		C79.7,54.5,81.6,56.4,83.9,56.4z"/>
	<path class="st1" d="M73.6,65.4c1.5,6.8,6.2,11.6,12,14c3.2,1.3,6.8,2,10.2,1.8c3.5-0.2,6.9-1.1,9.8-2.9c4.8-2.9,8.4-8.1,9.1-15.7
		c0.3-3.2,0.5-6.6,0.3-9.7c-0.2-3.2-0.8-6.1-2-8.5c-0.7-1.3-1.4-2.8-2.1-4.3c-1.5-3.3-3.1-6.7-5-9.2l-15.6,10
		c-2.2,1.3-5.2,3-8.4,4.5c-3.1,1.5-6.4,2.8-9.3,3.5c-0.2,3.8-0.2,6.7-0.1,9.2C72.7,60.5,73,62.7,73.6,65.4z M67,60l0-9.6
		c-2.1-0.1-3.6,0.9-4.3,2.4c-0.4,0.7-0.5,1.6-0.5,2.5c0,0.9,0.2,1.7,0.6,2.4C63.5,59.1,64.9,60.2,67,60L67,60z M67.4,50.2l0,10.1
		l-0.2,0c-2.4,0.2-4-0.9-4.7-2.5c-0.4-0.8-0.6-1.7-0.6-2.6c0-0.9,0.2-1.8,0.6-2.6c0.8-1.6,2.4-2.8,4.8-2.6l0.2,0L67.4,50.2
		L67.4,50.2z M120.5,50.2l0,10c2.2-0.3,3.6-1.3,4.4-2.6c0.4-0.7,0.6-1.5,0.6-2.2c0-0.8-0.2-1.6-0.6-2.3
		C124.2,51.7,122.7,50.6,120.5,50.2z M120.2,60.4l0-10.6l0.2,0c2.5,0.3,4.1,1.6,4.9,3.1c0.4,0.8,0.6,1.6,0.6,2.4
		c0,0.8-0.2,1.7-0.7,2.4c-0.8,1.4-2.5,2.6-4.9,2.8l-0.2,0V60.4L120.2,60.4z M83.9,47.9c1.2,0,2.3,0.5,3.1,1.3
		c0.8,0.8,1.3,1.9,1.3,3.1c0,1.2-0.5,2.3-1.3,3.1c-0.8,0.8-1.9,1.3-3.1,1.3c-1.2,0-2.3-0.5-3.1-1.3c-0.8-0.8-1.3-1.9-1.3-3.1
		c0-1.2,0.5-2.3,1.3-3.1C81.6,48.4,82.7,47.9,83.9,47.9L83.9,47.9z M85.4,79.7c-5.8-2.4-10.6-7.3-12.2-14.2c-0.6-2.7-0.9-5-1-7.6
		c-0.1-2.6,0-5.5,0.1-9.4l0-0.1l0.1,0c2.9-0.6,6.2-2,9.3-3.5c3.1-1.5,6.1-3.1,8.3-4.4L106,30.3l0.1,0.1c1.9,2.5,3.5,6.1,5.1,9.4
		c0.7,1.5,1.4,3,2,4.3c1.2,2.4,1.8,5.4,2,8.7c0.2,3.2,0,6.6-0.3,9.8c-0.7,7.7-4.3,13-9.3,16c-3,1.8-6.5,2.8-10,3
		C92.3,81.7,88.7,81.1,85.4,79.7L85.4,79.7z M93.9,66.9c1.6-0.1,1.7-0.5,1.8-0.8c0.2-0.7,0.4-1.6,6-1.6h0.2l0,0.2
		c-0.5,3.6-2.3,6-4.5,7.2c-1.2,0.6-2.4,1-3.7,1c-1.3,0-2.6-0.3-3.7-1c-2.2-1.2-3.9-3.6-4.4-7.2l0-0.2h0.2c5.2,0,5.7,1,6,1.7
		C92,66.7,92.2,67,93.9,66.9L93.9,66.9z M96,66.2c-0.1,0.5-0.2,1-2.2,1.1c-1.9,0.1-2.1-0.3-2.4-0.9c-0.3-0.6-0.7-1.5-5.5-1.5
		c0.5,3.3,2.1,5.6,4.2,6.7c1.1,0.6,2.3,0.9,3.5,0.9c1.2,0,2.4-0.3,3.5-0.9c2.1-1.2,3.8-3.4,4.3-6.8C96.3,64.9,96.2,65.6,96,66.2
		L96,66.2z M105.3,168.8c-0.3,0.7-0.3,1.5-0.1,2.4c0.5,1.8,1.9,3.8,4.1,5.6c2.2,1.9,5.2,3.7,8.6,5c5.9,2.3,13.2,3.3,20.4,1.4l0,0
		c3.2,0.1,6.5,0.3,9.8,0.4c3.6,0.2,7.1,0.4,10.1,0.4c3.9,0,7.1-0.2,9.5-0.5c2.3-0.3,3.7-0.8,4.2-1.3c-0.7-1-4.1-1.1-6.3-1.3
		c-0.7,0-1.4-0.1-1.7-0.1l-0.1,0l0-0.1c-0.9-2.3-0.8-5-0.7-7.9c0-0.7,0-1.4,0-2.1l-7.7,0c-0.2,9.9-4.9,10.1-13.9,10.7l-0.6,0l-0.1,0
		c0,0-0.2,0-0.3,0c-0.2,0-0.4,0-0.5,0c-3.8-1.6-3.7-5.1-3.6-8.7c0-0.5,0-1.1,0-1.6c-2.6-0.7-4.4-1.2-6.2-1.8c-1.8-0.6-3.5-1.3-6-2.3
		l-0.2-0.1c-3.1-1.2-7.7-1.2-11.5-0.7C108.8,166.8,105.7,167.9,105.3,168.8L105.3,168.8L105.3,168.8z M104.9,171.3
		c-0.2-0.9-0.2-1.8,0.1-2.6l0,0c0.4-1.1,3.7-2.2,7.6-2.8c3.9-0.5,8.5-0.5,11.7,0.7l0.2,0.1c2.4,1,4.2,1.7,6,2.3
		c1.8,0.6,3.6,1.1,6.3,1.8l0.1,0v0.1c0,0.6,0,1.2,0,1.8c-0.1,3.5-0.2,6.8,3.3,8.3l0.3,0c0.2,0,0.3,0,0.4,0l0.5,0
		c8.8-0.5,13.4-0.8,13.6-10.5l0-0.2l8.4,0v0.2c0,0.7,0,1.5,0,2.3c-0.1,2.8-0.1,5.5,0.7,7.7c0.3,0,0.9,0.1,1.6,0.1
		c2.3,0.1,6,0.3,6.7,1.5l0,0.1l0,0.1c-0.4,0.6-1.9,1.2-4.5,1.5c-2.4,0.3-5.6,0.5-9.5,0.5c-3,0-6.5-0.2-10.1-0.4
		c-3.2-0.2-6.6-0.4-9.7-0.4c-7.4,1.9-14.7,0.9-20.6-1.4c-3.5-1.3-6.5-3.1-8.7-5C106.9,175.2,105.4,173.2,104.9,171.3L104.9,171.3z
		 M67.3,165.8c-2.4,1-4.2,1.7-6,2.3c-1.8,0.6-3.6,1.1-6.2,1.8c0,0.6,0,1.1,0,1.6c0.1,3.6,0.2,7.1-3.6,8.7c-0.1,0-0.3,0-0.5,0
		c-0.2,0-0.3,0-0.3,0l-0.1,0l-0.6,0c-9-0.5-13.7-0.8-13.9-10.7l-7.7,0c0,0.7,0,1.4,0,2.1c0.1,2.9,0.1,5.6-0.8,7.9l0,0.1l-0.1,0
		c-0.3,0.1-1,0.1-1.7,0.1c-2.2,0.1-5.6,0.3-6.3,1.3c0.4,0.5,1.9,1,4.2,1.3c2.4,0.3,5.6,0.5,9.5,0.5c3,0,6.5-0.2,10.1-0.4
		c3.2-0.2,6.6-0.4,9.8-0.4l0,0c7.2,1.9,14.1,0.9,19.8-1.3c3.7-1.4,6.8-3.3,9.1-5.4c2.3-2,3.8-4.1,4.3-5.8c0.2-0.7,0.2-1.4,0-1.9l0,0
		c-0.4-1-3.5-2-7.4-2.5c-3.9-0.5-8.4-0.5-11.5,0.7L67.3,165.8L67.3,165.8z M61.2,167.8c1.8-0.6,3.5-1.3,6-2.3l0.2-0.1
		c3.2-1.2,7.8-1.2,11.7-0.7c3.9,0.6,7.2,1.7,7.6,2.8l0,0c0.2,0.6,0.3,1.4,0,2.2c-0.5,1.8-2,3.9-4.4,6c-2.4,2-5.5,4-9.2,5.4
		c-5.7,2.2-12.7,3.2-20,1.3c-3.2,0.1-6.5,0.3-9.7,0.4c-3.6,0.2-7.1,0.4-10.1,0.4c-3.9,0-7.2-0.2-9.5-0.5c-2.5-0.4-4.1-0.9-4.5-1.5
		l0-0.1l0-0.1c0.7-1.2,4.3-1.4,6.7-1.5c0.7,0,1.2-0.1,1.6-0.1c0.8-2.2,0.8-4.9,0.7-7.7c0-0.8,0-1.5,0-2.3v-0.2l8.4,0l0,0.2
		c0.2,9.7,4.8,10,13.6,10.5l0.5,0c0.1,0,0.3,0,0.4,0l0.3,0c3.5-1.5,3.4-4.9,3.3-8.3c0-0.6,0-1.2,0-1.8v-0.1l0.1,0
		C57.5,168.9,59.4,168.4,61.2,167.8L61.2,167.8z M49.5,130.2l0.1,11.1l-5,0l-0.1-11.1L49.5,130.2z M159.6,134
		c-1.3-0.4-2-1.8-1.6-3.1c0.4-1.3,1.8-2,3.1-1.6l3.9,1.3c1.2-1.9,2.1-3.9,2.6-6.1l-5.5,0.7c-1.4,0.2-2.6-0.8-2.8-2.2
		c-0.2-1.4,0.8-2.6,2.2-2.8l6.6-0.8c-0.3-5.2-2.8-9.9-6.7-13.4c-4.2-3.8-10.1-6.1-16.6-6.1c-6.5,0-12.4,2.3-16.6,6.1
		c-3.9,3.4-6.4,8.1-6.7,13.2l7.8,0.9c1.4,0.2,2.3,1.4,2.2,2.8c-0.2,1.4-1.4,2.3-2.8,2.2l-6.8-0.8c0.5,2.4,1.5,4.6,2.9,6.6l5-1.6
		c1.3-0.4,2.7,0.3,3.1,1.6c0.4,1.3-0.3,2.7-1.6,3.1l-2.9,0.9c3.9,3.4,9.1,5.6,14.9,5.9l0-5.2c-1.8-1.3-3.5-4-5.6-8.2
		c-0.6-1.2-0.1-2.7,1.1-3.3c0.1-0.1,0.3-0.1,0.4-0.2c2-0.7,4.1-1,6.2-1c2.1,0,4.3,0.4,6.4,1.1c1.3,0.4,2,1.8,1.6,3.1
		c0,0.1-0.1,0.3-0.1,0.4c-1.9,4.1-3.4,6.8-5.1,8.1l0,5.2c5.1-0.7,9.7-2.8,13.2-5.9l0.2-0.2L159.6,134L159.6,134z M169.9,132.1
		l10.4,3.4c1.3,0.4,2,1.8,1.6,3.1c-0.4,1.3-1.8,2-3.1,1.6l-12-3.8c-0.7,0.8-1.4,1.5-2.2,2.2c-5.1,4.5-12.2,7.4-19.9,7.4
		c-7.8,0-14.8-2.8-19.9-7.4c-0.7-0.6-1.3-1.2-1.9-1.8l-11,3.5c-1.3,0.4-2.7-0.3-3.1-1.6c-0.4-1.3,0.3-2.7,1.6-3.1l9.4-3
		c-1.6-2.7-2.7-5.6-3.1-8.7l-7.8-0.9c-1.4-0.2-2.3-1.4-2.2-2.8c0.2-1.4,1.4-2.3,2.8-2.2l7.1,0.8c0.1-1.5,0.4-2.9,0.7-4.3
		c0.1-2.1,0.1-4,0.1-5.8c0.1-3.8,0.2-7.1,0.3-9.8l-7.5-0.3c-1,5.8-3.7,9.9-7.2,12.3c-2.2,1.5-4.7,2.3-7.3,2.3c-2.6,0-5.1-0.6-7.5-2
		c-3.8-2.3-7.1-6.4-8.9-12.6L45,99.7l-0.2-5l34.4-1.3l1.9-11.7l4.9,0.8l-2.3,14.2c1.4,5,3.9,8.3,6.8,10c1.6,0.9,3.3,1.4,4.9,1.4
		c1.6,0,3.2-0.5,4.6-1.5c2.6-1.7,4.6-4.9,5.2-9.6L103,82.6l4.9-0.8l1.9,11.7l8.3,0.3c0.4-3.2,1-5.5,2.1-6.9c3.7-4.7,9.1-1,21.1,8.2
		c1.2-0.1,2.3-0.2,3.5-0.2c1.4,0,2.7,0.1,4.1,0.3c11.9-9.2,17.2-13,20.8-8.3c2.2,2.8,2.3,9.1,2.5,20c0,2.3,0.1,4.8,0.2,7.6
		c0.4,1.4,0.6,2.8,0.7,4.3l8.3-1c1.4-0.2,2.6,0.8,2.8,2.2c0.2,1.4-0.8,2.6-2.2,2.8l-9.1,1.1C172.4,126.8,171.4,129.6,169.9,132.1
		L169.9,132.1z M145.4,131.3l0.3,0c0.3-0.3,0.9-1.4,1.8-3.3c-0.7-0.1-1.5-0.2-2.2-0.2c-0.6,0-1.2,0-1.9,0.1
		C144.5,129.9,145.1,131,145.4,131.3L145.4,131.3z M167.1,104.8c-0.2-8.5-0.4-13.5-1.5-14.9c-0.6-0.8-3.7,1.4-10.6,6.8
		c3.6,1.3,6.9,3.2,9.6,5.6C165.5,103.1,166.4,103.9,167.1,104.8L167.1,104.8z M134.9,96.5c-6.9-5.3-10.1-7.5-10.8-6.6
		c-1.2,1.5-1.4,6.4-1.6,14.8c0.7-0.9,1.5-1.7,2.4-2.4C127.6,99.8,131.1,97.8,134.9,96.5z M103.8,47.9c1.2,0,2.3,0.5,3.1,1.3
		c0.8,0.8,1.3,1.9,1.3,3.1c0,1.2-0.5,2.3-1.3,3.1c-0.8,0.8-1.9,1.3-3.1,1.3c-1.2,0-2.3-0.5-3.1-1.3c-0.8-0.8-1.3-1.9-1.3-3.1
		c0-1.2,0.5-2.3,1.3-3.1C101.6,48.4,102.6,47.9,103.8,47.9z M106.7,49.4c-0.7-0.7-1.7-1.2-2.8-1.2c-1.1,0-2.1,0.4-2.8,1.2
		c-0.7,0.7-1.2,1.7-1.2,2.8c0,1.1,0.4,2.1,1.2,2.8c0.7,0.7,1.7,1.2,2.8,1.2l0.1,0l0.1,0l0.1,0l0.1,0l0.1,0l0.1,0l0.1,0l0.1,0l0.1,0
		l0,0l0,0l0,0l0,0l0,0l0,0l0,0l0,0l0,0l0,0l0,0l0,0l0,0l0,0l0,0l0,0l0,0l0,0l0,0l0,0l0,0l0,0l0,0l0,0l0,0l0,0l0,0l0,0l0,0l0.1,0l0,0
		l0,0l0,0l0.1,0l0,0l0,0l0,0l0,0l0,0l0,0l0,0l0,0l0,0c0,0,0.1-0.1,0.1-0.1l0,0l0,0c0.1-0.1,0.1-0.1,0.2-0.2c0.1-0.1,0.1-0.1,0.2-0.2
		l0,0l0,0l0,0l0,0c0.1-0.1,0.1-0.1,0.1-0.2l0,0l0,0l0,0l0,0l0,0l0,0l0,0l0,0l0,0l0,0l0,0l0,0l0,0l0,0l0,0l0,0l0,0l0,0l0,0l0,0l0,0
		l0,0l0,0l0,0l0,0l0,0l0,0l0,0l0,0l0,0l0,0l0,0l0,0l0,0l0,0l0,0l0,0l0,0l0,0l0,0l0-0.1l0-0.1l0-0.1l0-0.1l0-0.1l0-0.1l0-0.1l0-0.1
		l0-0.1l0-0.1C107.8,51.1,107.4,50.1,106.7,49.4L106.7,49.4z M86.7,49.4c-0.7-0.7-1.7-1.2-2.8-1.2c-1.1,0-2.1,0.4-2.8,1.2
		c-0.7,0.7-1.2,1.7-1.2,2.8c0,1.1,0.4,2.1,1.2,2.8c0.7,0.7,1.7,1.2,2.8,1.2c1.1,0,2.1-0.4,2.8-1.2c0.7-0.7,1.2-1.7,1.2-2.8
		C87.8,51.1,87.4,50.1,86.7,49.4L86.7,49.4z"/>
	<path class="st1" d="M103.9,56.4c2.3,0,4.2-1.9,4.2-4.2c0-2.3-1.9-4.2-4.2-4.2s-4.2,1.9-4.2,4.2C99.7,54.5,101.6,56.4,103.9,56.4z"
		/>
	<path class="st0" d="M140.9,181.2c-0.1,0-0.8,0-0.8,0c-4.3-1.8-3.4-6.2-3.4-10.3c-5.3-1.3-7.4-2.1-12.3-4.1
		c-6.3-2.6-18.5-0.2-19.3,1.9c-2.5,6.5,15.4,19.3,33.4,14.6c6.8,0.1,14.1,0.8,19.8,0.9c8,0,13.2-0.8,13.9-2
		c-0.8-1.5-6.8-1.3-8.2-1.6c-1.1-2.8-0.7-6.4-0.7-10.1l-8,0C155.1,180.6,150.2,180.7,140.9,181.2L140.9,181.2z M155.3,165.1
		l12.4,0.5c1.3,3.4,0.9,5.8,0.9,10.2c5.7,0,7.8,0.2,8-5.9c0.5-17.5-0.2-11.7-16-12.8v-4.3c1-0.9-0.3-0.3,1.4-0.8
		c0.5-0.2,1.5-0.1,2.3-0.2l-5.5-9.3c-2.8,1.2-3.3,1.9-6.7,2c-9.2,0.3-15.6,0.1-22.9-2.6c-2.8,7.8-5.8,9.4-5.8,19
		c3,0.8,5.7,2.2,8.6,3.3c2.5,0.9,2.2,0.7,5,0.9c5.6,0.4,5,0.5,5,10.7c5.3,0,7.8-0.4,8-5.9c0.1-3.7,0.2-9.3-0.7-12.6l-15.3-0.1V152
		C149,152,155.3,148.8,155.3,165.1L155.3,165.1z M126.2,135.6c1.8,5.4,7.3,6.5,15,6.5l9.8-0.2l12-6.3L126.2,135.6L126.2,135.6z
		 M163,135.6c0.1,0.8,3.5,8.1,4,9.3c4.1,8.8,1.9,6.7,6.9,7.2c10.8,1,7.9,14.8,7.9,22.5c-2.8,8.3-2.4,10.5-9.5,14.8
		c-3.1,1.5-23.3-1.1-33.8-1.8c-26,4.9-40-11.5-38.9-18.9c1.1-7.6,10.6-7.5,18.4-8.3c0-12.9,7.5-19.4,8.1-24.7L163,135.6L163,135.6z"
		/>
	<path class="st0" d="M139.8,126.3c3.6-1.3,7.3-1.2,11.2,0C146.3,136.5,144.8,136.4,139.8,126.3z"/>
	<path class="st1" d="M137.7,114.6c1.7,0,3.1-1.4,3.1-3.1s-1.4-3.1-3.1-3.1c-1.7,0-3.1,1.4-3.1,3.1S136,114.6,137.7,114.6z"/>
	<path class="st1" d="M152.2,114.6c1.7,0,3.1-1.4,3.1-3.1c0-1.7-1.4-3.1-3.1-3.1c-1.7,0-3.1,1.4-3.1,3.1
		C149.1,113.3,150.5,114.6,152.2,114.6z"/>
	<path class="st1" d="M51.3,121.7h-8.5c-2,0-3.7,1.8-3.7,4.1v2.5c0,2.3,1.7,4.1,3.7,4.1h8.5c2,0,3.7-1.8,3.7-4.1v-2.5
		C55,123.5,53.3,121.7,51.3,121.7z"/>
	<path class="st2" d="M67.2,165.7c-4.9,2-7,2.7-12.3,4.1c0,4.1,0.9,8.4-3.4,10.3c-0.1,0-0.8,0-0.8,0c-9.3-0.6-14.2-0.6-14.3-10.7
		l-8,0c0,3.7,0.4,7.3-0.7,10.1c-1.4,0.2-7.4,0-8.2,1.6c0.7,1.2,5.9,2,13.9,2c5.7,0,13.1-0.7,19.8-0.9c18.6,4.8,35.5-9.2,33.4-14.6
		C85.7,165.5,73.5,163.1,67.2,165.7L67.2,165.7z"/>
	<path class="st2" d="M105.1,168.8c-2.5,6.5,15.4,19.3,33.4,14.6c6.8,0.1,14.1,0.8,19.8,0.9c8,0,13.2-0.8,13.9-2
		c-0.8-1.5-6.8-1.3-8.2-1.6c-1.1-2.8-0.7-6.4-0.7-10.1l-8,0c-0.2,10.1-5,10.1-14.3,10.7c-0.1,0-0.8,0-0.8,0
		c-4.3-1.8-3.4-6.2-3.4-10.3c-5.3-1.3-7.4-2.1-12.3-4.1C118.2,164.3,105.9,166.7,105.1,168.8L105.1,168.8z"/>
	<path class="st2" d="M73.4,65.5c4.6,20.9,39.2,22.5,41.5-2.9c0.6-6.4,0.7-13.6-1.8-18.4c-2.2-4.2-4.4-10-7.1-13.7L90.3,40.6
		c-4.5,2.6-11.9,6.6-17.7,7.9C72.2,56.3,72.2,60.1,73.4,65.5z M88,52.2c0,2.3-1.9,4.2-4.2,4.2c-2.3,0-4.2-1.9-4.2-4.2
		s1.9-4.2,4.2-4.2C86.2,48.1,88,49.9,88,52.2z M93.9,67.1c4.4-0.3-1.4-2.4,7.9-2.4c-1.5,10.8-14.6,10.7-15.9,0
		C94.6,64.7,89.6,67.4,93.9,67.1L93.9,67.1z M108,52.2c0,2.3-1.9,4.2-4.2,4.2c-2.3,0-4.2-1.9-4.2-4.2s1.9-4.2,4.2-4.2
		C106.2,48.1,108,49.9,108,52.2z"/>
	<path class="st2" d="M120.3,50l0,10.4C127.6,59.6,127.4,51,120.3,50z"/>
	<path class="st2" d="M67.2,60.2l0-9.9C60.4,49.6,60.3,60.8,67.2,60.2z"/>
	<path class="st2" d="M101.7,86.1c-5.6,0.9-11.1,0.3-16-1.5l-1.9,12.1c1.4,5,3.9,8.3,6.8,10c1.6,0.9,3.3,1.4,4.9,1.4
		c1.6,0,3.2-0.5,4.6-1.5c2.6-1.7,4.6-4.9,5.2-9.6l-1.8-11.5C102.9,85.8,102.3,86,101.7,86.1z"/>
	<path class="st3" d="M119.1,68.3c2.6,4.2,8.8,8.7,14.5,9.5c0-10.6,0-15.1,0-25.7c0-10.6,0.3-20.8-9.6-22.7
		c4.3,15.7-1.5,12.6,3.6,18.2c6,6.5,4.2,16.9-7.7,18.4C119.7,66.7,119.4,67.5,119.1,68.3L119.1,68.3z"/>
	<path class="st3" d="M107.4,23.4c5.2,3.1,8,17.3,12.5,21.2c3.1-12.8-5.5-29.1-25.3-29.2c-19.3-0.1-27.4,10.5-27.4,28.9
		C83.1,42.2,105.1,23,107.4,23.4z"/>
	<path class="st4" d="M60,132.7c4.9-15.2,2.9-11.9,2.9-30.8c-4.6-3.2-16.6-1.8-25.7-1.8c-3,0-6.1,0.5-6.1,3c0,10.1-1.4,25.7,5.2,34
		l8.4,0.2l0-5h-1.3c-2.3,0-4.1-1.8-4.1-4.1v-2.5c0-2.3,1.8-4.1,4.1-4.1h7.7c2.3,0,4.1,1.8,4.1,4.1v2.5c0,2.3-1.8,4.1-4.1,4.1h-1.4
		l0,5.1l0.1,0C57.4,137.5,58.2,138.2,60,132.7L60,132.7z M57.4,111.6c0,1.7-1.4,3.1-3.1,3.1s-3.1-1.4-3.1-3.1c0-1.7,1.4-3.1,3.1-3.1
		C56,108.5,57.4,109.9,57.4,111.6z M39.8,108.4c1.7,0,3.1,1.4,3.1,3.1c0,1.7-1.4,3.1-3.1,3.1s-3.1-1.4-3.1-3.1
		C36.7,109.8,38.1,108.4,39.8,108.4z"/>
	<path class="st4" d="M68.4,105.4l-0.1,16l6,0.1l4.1-9.9L68.4,105.4z"/>
	<path class="st4" d="M25.7,120.5v-14.8c-2.8,1.1-7.8,4.7-9.9,6.4c2.7,6.9,2.6,8.2,3.9,8.7C20.5,121.1,24.8,120.5,25.7,120.5z"/>
	<path class="st4" d="M31,155.9c-15.8,1.1-16.5-4.7-16,12.8c0.2,6.1,2.3,5.9,8,5.9c0-4.5-0.4-6.8,0.9-10.2l12.4-0.5
		c0-16.3,6.3-13.2,21.3-13.2v5.3l-15.3,0.1c-0.9,3.2-0.8,8.8-0.7,12.6c0.2,5.5,2.7,5.9,8,5.9c0-10.2-0.6-10.4,5-10.7
		c2.8-0.2,2.5,0,5-0.9c2.9-1.1,5.6-2.5,8.6-3.3c0-9.6-3-11.2-5.8-19c-7.3,2.7-14.3,2.3-23.5,2c-3.4-0.1-3.3-0.2-6.1-1.4l-5.5,9.3
		c0.8,0.1,1.7,0,2.3,0.2c1.7,0.5,0.4-0.1,1.4,0.8V155.9z"/>
	<path class="st4" d="M134,152c15,0,21.3-3.1,21.3,13.2l12.4,0.5c1.3,3.4,0.9,5.8,0.9,10.2c5.7,0,7.8,0.2,8-5.9
		c0.5-17.5-0.2-11.7-16-12.8v-4.3c1-0.9-0.3-0.3,1.4-0.8c0.5-0.2,1.5-0.1,2.3-0.2l-5.5-9.3c-2.1,0.9-2.9,1.5-4.5,1.8
		c-3,1-6.2,1.5-9.5,1.5c-5.1,0-9.9-1.2-14-3.3c-0.5-0.2-1-0.3-1.5-0.5c-2.8,7.8-5.8,9.4-5.8,19c3,0.8,5.7,2.2,8.6,3.3
		c2.5,0.9,2.2,0.7,5,0.9c5.6,0.4,5,0.5,5,10.7c5.3,0,7.8-0.4,8-5.9c0.1-3.7,0.2-9.3-0.7-12.6l-15.3-0.1V152z"/>
	<path class="st4" d="M148.1,140.6c5.1-0.7,9.7-2.8,13.2-5.9l0.2-0.2l-1.9-0.6c-1.3-0.4-2-1.8-1.6-3.1c0.4-1.3,1.8-2,3.1-1.6
		l3.9,1.3c1.2-1.9,2.1-3.9,2.6-6.1l-5.5,0.7c-1.4,0.2-2.6-0.8-2.8-2.2c-0.2-1.4,0.8-2.6,2.2-2.8l6.6-0.8c-0.3-5.2-2.8-9.9-6.7-13.4
		c-4.2-3.8-10.1-6.1-16.6-6.1c-6.5,0-12.4,2.3-16.6,6.1c-3.9,3.4-6.4,8.1-6.7,13.2l7.8,0.9c1.4,0.2,2.3,1.4,2.2,2.8
		c-0.2,1.4-1.4,2.3-2.8,2.2l-6.8-0.8c0.5,2.4,1.5,4.6,2.9,6.6l5-1.6c1.3-0.4,2.7,0.3,3.1,1.6c0.4,1.3-0.3,2.7-1.6,3.1l-2.9,0.9
		c3.9,3.4,9.1,5.6,14.9,5.9l0-5.2c-1.8-1.3-3.5-4-5.6-8.2c-0.6-1.2-0.1-2.7,1.1-3.3c0.1-0.1,0.3-0.1,0.4-0.2c2-0.7,4.1-1,6.2-1
		c2.1,0,4.3,0.4,6.4,1.1c1.3,0.4,2,1.8,1.6,3.1c0,0.1-0.1,0.3-0.1,0.4c-1.9,4.1-3.4,6.8-5.1,8.1L148.1,140.6L148.1,140.6z
		 M155.2,111.6c0,1.7-1.4,3.1-3.1,3.1c-1.7,0-3.1-1.4-3.1-3.1c0-1.7,1.4-3.1,3.1-3.1C153.8,108.5,155.2,109.9,155.2,111.6z
		 M137.6,108.5c1.7,0,3.1,1.4,3.1,3.1c0,1.7-1.4,3.1-3.1,3.1c-1.7,0-3.1-1.4-3.1-3.1C134.5,109.8,135.9,108.5,137.6,108.5z"/>
	<path class="st4" d="M155,96.7c3.6,1.3,6.9,3.2,9.6,5.6c0.9,0.8,1.7,1.6,2.5,2.5c-0.2-8.5-0.4-13.5-1.5-14.9
		C165.1,89.2,161.9,91.4,155,96.7L155,96.7z"/>
	<path class="st4" d="M134.9,96.5c-6.9-5.3-10.1-7.5-10.8-6.6c-1.2,1.5-1.4,6.4-1.6,14.8c0.7-0.9,1.5-1.7,2.4-2.4
		C127.7,99.8,131.1,97.8,134.9,96.5z"/>
	<path class="st5" d="M74.9,186.1l42,0.4c-11.8-3.9-17.8-12.9-17.1-17.8c1.1-7.6,10.6-7.5,18.4-8.3c0-10.5,5-16.7,7.1-21.6
		c-0.1-0.1-0.3-0.2-0.4-0.4c-0.7-0.6-1.3-1.2-1.9-1.8l-11,3.5c-1.3,0.4-2.7-0.3-3.1-1.6c-0.4-1.3,0.3-2.7,1.6-3.1l9.4-3
		c-1.6-2.7-2.7-5.6-3.1-8.7l-7.8-0.9c-1.4-0.2-2.3-1.4-2.2-2.8c0.2-1.4,1.4-2.3,2.8-2.2l7.1,0.8c0.1-1.5,0.4-2.9,0.7-4.3
		c0.1-2.1,0.1-4,0.1-5.8c0.1-3.8,0.2-7.1,0.3-9.8l-7.5-0.3c-1,5.8-3.7,9.9-7.2,12.3c-2.2,1.5-4.7,2.3-7.3,2.3c-2.6,0-5.1-0.6-7.5-2
		c-3.8-2.3-7.1-6.4-8.9-12.6l-10.8,0.4c4.4,2.9,12.1,7.5,15.5,10.8c0.4,3.8-4.2,14.7-6.1,16.7l-9.5,0.6c-1.7,1.3-2.9,5.4-2.7,7.5
		c0.6,5.3,8.1,11.8,8.1,24.7c7.9,0.8,17.3,0.7,18.4,8.3C92.2,173.4,85.3,182.2,74.9,186.1L74.9,186.1z"/>
</g>
</svg>
