<?xml version="1.0" encoding="utf-8"?>
<!-- Generator: Adobe Illustrator 26.0.1, SVG Export Plug-In . SVG Version: 6.00 Build 0)  -->
<svg version="1.1" id="Capa_1" xmlns="http://www.w3.org/2000/svg" xmlns:xlink="http://www.w3.org/1999/xlink" x="0px" y="0px"
	 viewBox="0 0 163.4 200" style="enable-background:new 0 0 163.4 200;" xml:space="preserve">
<style type="text/css">
	.st0{fill-rule:evenodd;clip-rule:evenodd;fill:#212741;}
	.st1{fill-rule:evenodd;clip-rule:evenodd;fill:#FFFFFF;stroke:#373435;stroke-width:9.547102e-03;stroke-miterlimit:2.6131;}
	
		.st2{fill-rule:evenodd;clip-rule:evenodd;fill:#3E2DB0;fill-opacity:0.2;stroke:#373435;stroke-width:9.547102e-03;stroke-miterlimit:2.6131;}
	.st3{fill:#212741;}
	.st4{fill-rule:evenodd;clip-rule:evenodd;fill:#FFB20C;}
</style>
<g>
	<path class="st0" d="M75.2,148.9c0-2,1.6-3.6,3.6-3.6h41c2,0,3.6,1.6,3.6,3.6v34.7H75.2V148.9L75.2,148.9z M155.3,81.4v6.4h-12.8
		v34.7c0,2,1.6,3.6,3.6,3.6h9.2v6.4h-10.4c-4.4,0-8.8-4.4-8.8-8.8V87.8h-6.4v35.9c0,4.4-4.4,8.8-8.8,8.8H42.4
		c-4.4,0-8.8-4.4-8.8-8.8v-5.2c0-2.3,1.1-3.8,2.4-4.8c1.9-1.4,12.7-4.7,15.3-5.5c10.1-3.3,11.1-11.1,11.1-20.4H56c0,5,0.4,6.7-3,11
		c-1.4,1.8-3.4,3-5.7,3.9c-4.7,1.8-9.8,3.3-14.7,4.9c-2.5,0.8-4.4,1.8-5.2,4.8c-0.5,2-0.3,6.6-0.3,9.3c0.1,12.8-10.6,10.8-19.2,10.8
		v-6.4h9.2c2.9,0,3.6-2.1,3.6-5.2c0-2.7-0.2-6.2,0-8.8c0.4-4.6,3.9-8.3,7.2-9.9c13.6-6.5,21.5-2.7,21.5-14.4H8.1v-6.4H70h55.4
		L155.3,81.4L155.3,81.4z M155.3,138.9v6.4h-12.8v12.8h12.8v6.4h-13.6c-2.5,0-5.6-3.1-5.6-5.6v-14.4c0-2.5,3.1-5.6,5.6-5.6
		L155.3,138.9L155.3,138.9z M155.3,170.8v6.4h-12.8v6.4h12.8v6.4H8.1v-8.8c0.2-0.4,0.5-0.8,0.8-1.2c6.7-9.4,11.6-22.6,11.6-34.7H8.1
		v-6.4h16c1.9,0,3.2,1.3,3.2,3.2c0,9.1-1.2,16.9-4.2,24.6c-4.5,11.6-4.2,8.6-8.6,16.9h8c0.3-1.1,1.8-3.8,2.5-5.1l2.4-4.8
		c2.8-5.7,5.8-17.2,5.8-23.7c0-2.5,0.3-4.3,0.4-7.2c0-2.5,0.8-4,3.2-4h22.4c1.9,0,3.2,1.3,3.2,3.2v41.5h6.4v-35.9
		c0-4.4,4.4-8.8,8.8-8.8h43.4c4.4,0,8.8,4.4,8.8,8.8v35.9h6.4v-7.2c0-2.5,3.1-5.6,5.6-5.6H155.3L155.3,170.8z M40,147.7v-2.4h16
		v38.3H30c0.3-1.1,1.3-2.5,1.9-3.7C36.4,170.8,40,158.1,40,147.7L40,147.7z M123.3,87.8v34.7c0,2-1.6,3.6-3.6,3.6H43.6
		c-3.8,0-3.6-3.4-3.6-7.2c4.3-1,15.5-4.9,19.1-7.3c5-3.3,9.7-10.6,9.7-16.7v-7.2C96.2,87.8,115,87.8,123.3,87.8L123.3,87.8z"/>
	<path class="st1" d="M123.4,87.8c-8.3,0-27.2,0-54.6,0V95c0,6.1-4.6,13.4-9.7,16.7c-3.6,2.3-14.8,6.3-19.1,7.3
		c0,3.8-0.2,7.2,3.6,7.2h76.1c2,0,3.6-1.6,3.6-3.6L123.4,87.8L123.4,87.8z"/>
	<path class="st1" d="M28.1,102.2c13.6-6.5,21.5-2.7,21.5-14.4H8.3v38.3h8.9c2.9,0,3.6-2.1,3.6-5.2c0-2.7-0.2-6.2,0-8.8
		C21.2,107.5,24.7,103.8,28.1,102.2L28.1,102.2z"/>
	<path class="st1" d="M8.9,180c6.7-9.4,11.6-22.6,11.6-34.7H8.3v35.5C8.5,180.6,8.7,180.3,8.9,180z"/>
	<path class="st1" d="M40,147.7c0,10.4-3.6,23.1-8.1,32.2c-0.6,1.2-1.6,2.7-1.9,3.7h26v-38.3H40L40,147.7L40,147.7z"/>
	<path class="st1" d="M75.2,148.9v34.7h48.2v-34.7c0-2-1.6-3.6-3.6-3.6h-41C76.8,145.3,75.2,146.9,75.2,148.9L75.2,148.9z"/>
	<path class="st1" d="M142.5,87.8v34.7c0,2,1.6,3.6,3.6,3.6h9.2V87.8L142.5,87.8L142.5,87.8z"/>
	<path class="st1" d="M155.3,145.3h-12.8v12.8h12.8V145.3z"/>
	<path class="st1" d="M155.3,177.2h-12.8v6.4h12.8V177.2z"/>
	<path class="st2" d="M136.1,158.9v-14.4c0-2.5,3.1-5.6,5.6-5.6h13.6v-6.4h-10.4c-4.4,0-8.8-4.4-8.8-8.8V87.8h-6.4v35.9
		c0,4.4-4.4,8.8-8.8,8.8H42.4c-4.4,0-8.8-4.4-8.8-8.8v-5.2c0-2.3,1.1-3.8,2.4-4.8c1.9-1.4,12.7-4.7,15.3-5.5
		c10.1-3.3,11.1-11.1,11.1-20.4H56c0,5,0.4,6.7-3,11c-1.4,1.8-3.4,3-5.7,3.9c-4.7,1.8-9.8,3.3-14.7,4.9c-2.5,0.8-4.4,1.8-5.2,4.8
		c-0.5,2-0.3,6.6-0.3,9.3c0.1,12.7-10.4,10.8-18.9,10.8v6.4H24c1.9,0,3.2,1.3,3.2,3.2c0,9.1-1.2,16.9-4.2,24.6
		c-4.5,11.6-4.2,8.6-8.6,16.9h8c0.3-1.1,1.8-3.8,2.5-5.1l2.4-4.8c2.8-5.7,5.8-17.2,5.8-23.7c0-2.5,0.3-4.3,0.4-7.2
		c0-2.5,0.8-4,3.2-4h22.4c1.9,0,3.2,1.3,3.2,3.2v41.5h6.4v-35.9c0-4.4,4.4-8.8,8.8-8.8h43.4c4.4,0,8.8,4.4,8.8,8.8v35.9h6.4v-7.2
		c0-2.5,3.1-5.6,5.6-5.6h13.6v-6.4h-13.6C139.2,164.5,136.1,161.4,136.1,158.9L136.1,158.9z"/>
	<path class="st3" d="M66.4,43.4c-0.4,2.5-0.5,5.2-0.5,8.4c0,5.1,1.2,10.6,3.1,15.9v0c2.3,6.4,5.5,12.5,8.7,17.3
		c1.4,2.1,2.8,4,4.2,5.9c1.4,1.8,2.8,3.6,4.5,5.6c0.2,0.2,0.3,0.4,0.5,0.5c0.3,0.3,0.6,0.6,0.9,1c0.6,0.8,3.4,3.7,6.2,6.4
		c1.4,1.4,2.8,2.7,3.9,3.6l4.8-4.2c0.3-0.3,0.6-0.5,0.8-0.8c0.7-0.6,1.3-1.3,1.9-2l6.8-7.8l0,0c2.9-3.5,5.5-7.2,7.8-11.1
		c2.3-3.8,4.2-7.7,5.9-11.9c1.5-3.7,2.5-7,3.1-10.5c0.6-3.5,0.9-7.1,0.9-11.4c0-2.4-0.5-5-1.2-7.4c-0.9-2.9-2.1-5.6-3.4-7.7
		c-1-1.7-1.9-2.9-2.9-4c-0.9-1.1-2-2.1-3.3-3.3l-3.4-2.7c-0.4-0.3-0.7-0.5-1.1-0.7h0c-0.3-0.2-0.7-0.4-1.3-0.7
		c-1.4-0.8-2.8-1.4-4.2-2c-1.4-0.5-2.8-0.9-4.4-1.2c-0.7-0.1-2.5-0.4-4.2-0.6c-1.1-0.1-2.2-0.2-2.6-0.2v0L93.9,18
		c-1.9,0.3-4,0.7-6,1.3c-1.7,0.5-3.3,1.1-4.5,1.8c-3.5,2-6.2,3.9-8.5,6.1c-2.2,2.2-4.1,4.9-6,8.7C67.5,38.7,66.8,41,66.4,43.4
		L66.4,43.4z M96.4,10h2.8l0.1,0c2.8,0.1,5.5,0.5,8.1,1.1c2.6,0.6,5.1,1.5,7.5,2.7c0.6,0.3,1.1,0.5,1.6,0.8c0.5,0.3,1,0.6,1.6,0.9
		l0.2,0.1l6.6,5c1.8,1.5,3.6,3.6,5.2,5.8c1.7,2.3,3.1,4.9,4,7c0.9,2.2,1.8,4.6,2.4,7.1c0.6,2.6,1.1,5.4,1.1,8.6
		c0,4.3-0.4,8.1-1,11.6c-0.7,3.5-1.6,6.8-2.8,10.2c-0.6,1.7-1.6,4.1-2.6,6.5c-1,2.2-2.1,4.4-3,5.9l-1,1.7c-1.9,3.3-3.1,5.3-6.1,9.2
		c-1.8,2.4-3.5,4.5-5.2,6.5c-1.8,2.1-3.6,4.1-5.7,6.2l0,0l-2.1,2.1h0.8c0.5,0,0.7,0,0.9,0c0.4,0,0.9,0,1,0c2.5,0,4.6,0.5,4.6,3.8
		c0,1.1-0.4,1.9-0.8,2.5c-0.7,0.9-1.8,1.4-2.7,1.4H83.9c-1,0-1.8-0.4-2.5-0.9c-0.9-0.8-1.3-2.1-1.3-2.6c0-3.7,1.5-4.2,4.5-4.2l0.9,0
		c0.2,0,0.5,0,1.1,0h0.7l-0.3-0.3l0,0c-5.2-5.3-7.6-7.7-12.8-14.6c-0.9-1.3-1.7-2.4-2.5-3.5c-0.7-1.1-1.5-2.3-2.3-3.5
		c-1.4-2.1-3-5.1-4.4-8c-1.4-3-2.7-5.9-3.5-8.2c-1.2-3.5-2.1-6.7-2.7-10.1c-0.6-3.4-1-7.1-1-11.6c0-3,0.4-5.7,1-8.3
		c0.6-2.5,1.5-5,2.5-7.5c0.9-2.3,2.1-4,3.3-5.9l0.2-0.4c1-1.6,2.3-3.1,3.7-4.6c1.4-1.5,3-3,4.6-4.2c1-0.8,2.3-1.7,3.6-2.5
		c1.3-0.8,2.7-1.6,3.9-2.1c2.4-1.1,4.9-2,7.5-2.6C90.9,10.5,93.6,10.1,96.4,10L96.4,10L96.4,10z"/>
	<path class="st4" d="M66.4,43.4c-0.4,2.5-0.5,5.2-0.5,8.4c0,5.1,1.2,10.6,3.1,15.9v0c2.3,6.4,5.5,12.5,8.7,17.3
		c1.4,2.1,2.8,4,4.2,5.9c1.4,1.8,2.8,3.6,4.5,5.6c0.2,0.2,0.3,0.4,0.5,0.5c0.3,0.3,0.6,0.6,0.9,1c0.6,0.8,3.4,3.7,6.2,6.4
		c1.4,1.4,2.8,2.7,3.9,3.6l4.8-4.2c0.3-0.3,0.6-0.5,0.8-0.8c0.7-0.6,1.3-1.3,1.9-2l6.8-7.8l0,0c2.9-3.5,5.5-7.2,7.8-11.1
		c2.3-3.8,4.2-7.7,5.9-11.9c1.5-3.7,2.5-7,3.1-10.5c0.6-3.5,0.9-7.1,0.9-11.4c0-2.4-0.5-5-1.2-7.4c-0.9-2.9-2.1-5.6-3.4-7.7
		c-1-1.7-1.9-2.9-2.9-4c-0.9-1.1-2-2.1-3.3-3.3l-3.5-2.7c-0.4-0.3-0.7-0.5-1.1-0.7h0c-0.3-0.2-0.7-0.4-1.3-0.7
		c-1.4-0.8-2.8-1.4-4.2-2c-1.4-0.5-2.8-0.9-4.4-1.2c-0.7-0.1-2.5-0.4-4.2-0.6c-1.1-0.1-2.2-0.2-2.6-0.2L93.9,18
		c-1.9,0.3-4,0.7-6,1.3c-1.7,0.5-3.3,1.1-4.5,1.8c-3.5,2-6.2,3.9-8.5,6.1c-2.2,2.2-4.1,4.9-6,8.7C67.6,38.6,66.8,41,66.4,43.4
		L66.4,43.4z"/>
	<path class="st0" d="M96.7,73.2c4.5-1,7,2,10.6,3c4.6,1.3,7.8-2.1,6.3-6.8c-1.2-3.9-4.3-5.8-6.3-8.3c-4.7-5.8-9.5-12.3-16.6-2.1
		c-2.2,3.1-4.6,4.8-6.7,7.8c-2.4,3.5-2.6,8.8,1.9,9.7C89.7,77.3,93.1,74,96.7,73.2L96.7,73.2L96.7,73.2z"/>
	<path class="st0" d="M110.8,43.8c3.4-11.9-7.9-16.6-11.1-5.3C96.3,50.8,107.6,55,110.8,43.8z"/>
	<path class="st0" d="M85.1,43.3c2.5,11,14.4,8.4,11.4-4.1C93.9,28,82.2,30.6,85.1,43.3z"/>
	<path class="st0" d="M74.2,51.3c0.8,9.2,14.8,15,13.7,4.2C86.9,46.4,73.3,40.8,74.2,51.3z"/>
	<path class="st0" d="M121.5,53.9c4-11.3-9.2-10.8-12.7-0.7c-1.5,4.3,0.1,9,5.3,7.7C116.8,60.3,120.6,56.3,121.5,53.9L121.5,53.9
		L121.5,53.9z"/>
</g>
</svg>
