<?xml version="1.0" encoding="utf-8"?>
<!-- Generator: Adobe Illustrator 26.0.1, SVG Export Plug-In . SVG Version: 6.00 Build 0)  -->
<svg version="1.1" id="Capa_1" xmlns="http://www.w3.org/2000/svg" xmlns:xlink="http://www.w3.org/1999/xlink" x="0px" y="0px"
	 viewBox="0 0 200 187.1" style="enable-background:new 0 0 200 187.1;" xml:space="preserve">
<style type="text/css">
	
		.st0{fill:#3E2DB0;fill-opacity:0.2;stroke:#373435;stroke-width:5.1;stroke-linecap:round;stroke-linejoin:round;stroke-miterlimit:2.6131;}
	.st1{fill:#FFFFFF;stroke:#373435;stroke-width:5.1;stroke-linecap:round;stroke-linejoin:round;stroke-miterlimit:2.6131;}
	.st2{fill:none;stroke:#373435;stroke-width:5.1;stroke-linecap:round;stroke-linejoin:round;stroke-miterlimit:2.6131;}
	
		.st3{fill-rule:evenodd;clip-rule:evenodd;fill:#FFB20C;stroke:#373435;stroke-width:5.1;stroke-linecap:round;stroke-linejoin:round;stroke-miterlimit:2.6131;}
</style>
<g>
	<path class="st0" d="M152.9,19.9H42.6c-2.1,0-3.9,1.7-3.9,3.9v140.7c0,2.1,1.7,3.9,3.9,3.9h110.3c2.1,0,3.9-1.7,3.9-3.9V23.8
		C156.8,21.6,155.1,19.9,152.9,19.9z"/>
	<path class="st1" d="M139.3,9.6H29c-2.1,0-3.9,1.7-3.9,3.9v140.7c0,2.1,1.7,3.9,3.9,3.9h110.3c2.1,0,3.9-1.7,3.9-3.9V13.5
		C143.2,11.3,141.5,9.6,139.3,9.6z"/>
	<path class="st2" d="M43.9,50.8h79.3"/>
	<path class="st2" d="M43.9,73.8h79.3"/>
	<path class="st2" d="M43.9,96.7h79.3"/>
	<path class="st2" d="M43.9,119.6h58.8"/>
	<path class="st2" d="M20.8,53.3c-5.6,0-10.2-4.5-10.2-10.2c0-5.6,4.5-10.2,10.2-10.2"/>
	<path class="st2" d="M20.8,94c-5.6,0-10.2-4.5-10.2-10.2c0-5.6,4.5-10.2,10.2-10.2"/>
	<path class="st2" d="M20.2,134.3c-5.6,0-10.2-4.5-10.2-10.2c0-5.6,4.5-10.2,10.2-10.2"/>
	<path class="st3" d="M141.1,168l-13.5,9.5l0.4-15.7l49-81.9c4.8-7.3,17.7-2,11.3,8.8L141.1,168L141.1,168z"/>
</g>
</svg>
