<?xml version="1.0" encoding="utf-8"?>
<!-- Generator: Adobe Illustrator 26.0.1, SVG Export Plug-In . SVG Version: 6.00 Build 0)  -->
<svg version="1.1" id="Capa_1" xmlns="http://www.w3.org/2000/svg" xmlns:xlink="http://www.w3.org/1999/xlink" x="0px" y="0px"
	 viewBox="0 0 200 203.3" style="enable-background:new 0 0 200 203.3;" xml:space="preserve">
<style type="text/css">
	.st0{fill-rule:evenodd;clip-rule:evenodd;fill:#FFFFFF;stroke:#212741;stroke-width:4.3444;stroke-miterlimit:2.6131;}
	.st1{fill:#3E2DB0;fill-opacity:0.4;stroke:#212741;stroke-width:4.3444;stroke-miterlimit:2.6131;}
	.st2{fill:#FFB20C;stroke:#212741;stroke-width:4.3444;stroke-miterlimit:2.6131;}
	
		.st3{fill-rule:evenodd;clip-rule:evenodd;fill:#3E2DB0;fill-opacity:0.2;stroke:#212741;stroke-width:4.3444;stroke-miterlimit:2.6131;}
	.st4{fill-rule:evenodd;clip-rule:evenodd;fill:#212741;}
</style>
<g>
	<path class="st0" d="M47,80.4c-1.1,0.8-2.2,1.9-3.5,2.2c0,15.9,0,31.8,0,47.8c0,5.1-0.3,37.9,0,42.1c0.1,1.8,1.4,2.4,3.3,2.4h106.1
		c4.4,0,3.3-3,3.3-8.7V82.6c-1.5-0.4-15.2-10.5-17.8-12.3l-5.3-3.7c-9.7-6.5-19.9-14.1-29.7-20.9c-4.2-2.9-2.1-3.5-10.7,2.6
		L76.7,59.6C67.1,66,56.8,73.7,47,80.4z"/>
	<path class="st0" d="M133.1,50.8l15.4,10.8c0-6,0-11.9,0-17.9c0-15.5,2.1-13.5-15.9-13.5c-2.5,0-4.4,1.1-4.4,3.6v12.7
		C128.2,48,131.9,49.9,133.1,50.8z"/>
	<path class="st1" d="M162.4,87.1L100.3,43L36.6,87.5c-1.7,1.2-4.1,3-6.2,3c-1.6,0-3-0.5-4.1-1.4c-1-0.8-1.7-1.9-2.1-3.1
		c-0.4-1.2-0.4-2.5,0-3.7c0.4-1.3,1.2-2.6,2.5-3.7L95,30.6c4.8-3.5,6.5-2.3,10.3,0.5l67.2,47.2c1.4,0.9,2.5,2.3,3,3.8
		c0.5,1.5,0.4,2.8-0.1,4.1c-0.4,1.1-1.1,2-1.9,2.7c-1.2,1-2.7,1.6-4,1.6C166.6,90.4,164.6,88.6,162.4,87.1L162.4,87.1z"/>
	<path class="st2" d="M100.4,96.1c14.7,0,26.6-11.9,26.6-26.5S115.1,43,100.4,43S73.7,54.9,73.7,69.5S85.6,96.1,100.4,96.1z"/>
	<path class="st3" d="M73.3,136.5c0-33.3,53.5-33.1,53.3,0.2v38.2H73.3V136.5z"/>
	<path class="st0" d="M73.3,174.8h-56c-1.8,0-3.6-0.8-4.9-1.9c-1.4-1.2-2.3-2.9-2.3-4.7c0-1.2,0-1.7,0-2.2c-0.1-4.3-0.1-6.3,3.4-9.8
		c1.8-1.8,4.1-2.8,6.3-3c1.5-0.1,3.1,0.1,4.5,0.6c1.4,0.5,2.7,1.4,3.8,2.4c1.7,1.7,2.8,3.9,3.1,6.6c0,0.1,0,0.2,0,0.3l0-0.1
		c0.1-1.2,0.2-2,0.5-2.7c0.3-0.8,0.6-1.5,1.2-2.4c1.4-2.1,3.3-3.5,5.3-4.2c2-0.7,4.1-0.7,6-0.2c2,0.5,3.8,1.5,5.2,3.1
		c1.5,1.6,2.5,3.8,2.8,6.3c0,0.1,0,0.2,0,0.3l0-0.1c0.4-4.5,2.8-7.4,5.8-8.9c1.5-0.7,3.1-1.1,4.7-1c1.6,0,3.2,0.4,4.7,1.1
		c3.1,1.5,5.5,4.4,5.9,8.6l0,0.2L73.3,174.8L73.3,174.8z"/>
	<path class="st0" d="M126.7,174.8h56c1.8,0,3.6-0.8,4.9-1.9c1.4-1.2,2.3-2.9,2.3-4.7c0-1.2,0-1.7,0-2.2c0.1-4.3,0.1-6.3-3.4-9.8
		c-1.8-1.8-4.1-2.8-6.3-3c-1.5-0.1-3.1,0.1-4.5,0.6c-1.4,0.5-2.7,1.4-3.8,2.4c-1.7,1.7-2.8,3.9-3.1,6.6c0,0.1,0,0.2,0,0.3l0-0.1
		c-0.1-1.2-0.2-2-0.5-2.7c-0.3-0.8-0.6-1.5-1.2-2.4c-1.4-2.1-3.3-3.5-5.3-4.2c-2-0.7-4.1-0.7-6-0.2c-2,0.5-3.8,1.5-5.2,3.1
		c-1.5,1.6-2.5,3.8-2.8,6.3c0,0.1,0,0.2,0,0.3l0-0.1c-0.4-4.5-2.8-7.4-5.8-8.9c-1.5-0.7-3.1-1.1-4.7-1c-1.6,0-3.2,0.4-4.7,1.1
		c-3.1,1.5-5.5,4.4-5.9,8.6l0,0.2L126.7,174.8L126.7,174.8z"/>
	<path class="st4" d="M100.3,81.1c2.9-0.6,4.5,1.3,6.8,2c3,0.8,5-1.3,4.1-4.4c-0.8-2.5-2.8-3.7-4.1-5.3c-3-3.7-6.1-7.9-10.7-1.4
		c-1.4,2-3,3.1-4.3,5c-1.5,2.3-1.7,5.7,1.2,6.2C95.8,83.8,97.9,81.6,100.3,81.1L100.3,81.1L100.3,81.1z"/>
	<path class="st4" d="M109.4,62.1c2.2-7.7-5.1-10.7-7.1-3.4C100,66.6,107.3,69.4,109.4,62.1z"/>
	<path class="st4" d="M92.8,61.8c1.6,7.1,9.3,5.4,7.4-2.6C98.4,51.9,90.9,53.6,92.8,61.8z"/>
	<path class="st4" d="M85.7,67c0.5,5.9,9.6,9.7,8.8,2.7C94,63.8,85.2,60.2,85.7,67z"/>
	<path class="st4" d="M116.3,68.6c2.6-7.3-5.9-7-8.2-0.4c-1,2.8,0.1,5.8,3.4,5C113.2,72.7,115.7,70.2,116.3,68.6L116.3,68.6z"/>
</g>
</svg>
