<?xml version="1.0" encoding="utf-8"?>
<!-- Generator: Adobe Illustrator 26.0.1, SVG Export Plug-In . SVG Version: 6.00 Build 0)  -->
<svg version="1.1" id="Capa_1" xmlns="http://www.w3.org/2000/svg" xmlns:xlink="http://www.w3.org/1999/xlink" x="0px" y="0px"
	 viewBox="0 0 24 24" style="enable-background:new 0 0 24 24;" xml:space="preserve">
<style type="text/css">
	.st0{clip-path:url(#SVGID_00000150793783500612074180000001215223977628934049_);}
	.st1{fill:#FFFFFF;}
</style>
<g>
	<defs>
		<rect id="SVGID_1_" x="2" y="0.5" width="20" height="23"/>
	</defs>
	<clipPath id="SVGID_00000056392510321165960510000018342436698619529858_">
		<use xlink:href="#SVGID_1_"  style="overflow:visible;"/>
	</clipPath>
	<g style="clip-path:url(#SVGID_00000056392510321165960510000018342436698619529858_);">
		<path class="st1" d="M12,6.8c-2.8,0-5.1,2.3-5.1,5.2c0,2.9,2.3,5.2,5.1,5.2c2.8,0,5.1-2.3,5.1-5.2C17.1,9.1,14.8,6.8,12,6.8z
			 M12,15.3c-1.8,0-3.3-1.5-3.3-3.4s1.5-3.4,3.3-3.4c1.8,0,3.3,1.5,3.3,3.4S13.8,15.3,12,15.3L12,15.3z M18.5,6.6
			c0,0.7-0.5,1.2-1.2,1.2c-0.7,0-1.2-0.5-1.2-1.2c0-0.7,0.5-1.2,1.2-1.2C18,5.4,18.5,6,18.5,6.6z M21.9,7.9c-0.1-1.6-0.4-3-1.6-4.2
			c-1.2-1.2-2.6-1.5-4.2-1.6c-1.7-0.1-6.6-0.1-8.3,0c-1.6,0.1-3,0.4-4.2,1.6C2.5,4.8,2.1,6.2,2.1,7.8C2,9.5,2,14.5,2.1,16.1
			c0.1,1.6,0.4,3,1.6,4.2c1.2,1.2,2.6,1.5,4.2,1.6c1.7,0.1,6.6,0.1,8.3,0c1.6-0.1,3-0.4,4.2-1.6c1.2-1.2,1.5-2.6,1.6-4.2
			C22,14.5,22,9.5,21.9,7.9L21.9,7.9z M19.8,17.9c-0.3,0.9-1,1.6-1.9,1.9c-1.3,0.5-4.4,0.4-5.9,0.4c-1.5,0-4.6,0.1-5.9-0.4
			c-0.9-0.3-1.5-1-1.9-1.9c-0.5-1.3-0.4-4.5-0.4-5.9S3.7,7.4,4.2,6.1c0.3-0.9,1-1.6,1.9-1.9c1.3-0.5,4.4-0.4,5.9-0.4
			c1.5,0,4.6-0.1,5.9,0.4c0.9,0.3,1.5,1,1.9,1.9c0.5,1.3,0.4,4.5,0.4,5.9S20.3,16.6,19.8,17.9z"/>
	</g>
</g>
</svg>
