<?xml version="1.0" encoding="utf-8"?>
<!-- Generator: Adobe Illustrator 26.0.1, SVG Export Plug-In . SVG Version: 6.00 Build 0)  -->
<svg version="1.1" id="Capa_1" xmlns="http://www.w3.org/2000/svg" xmlns:xlink="http://www.w3.org/1999/xlink" x="0px" y="0px"
	 viewBox="0 0 120 120" style="enable-background:new 0 0 120 120;" xml:space="preserve">
<style type="text/css">
	.st0{fill:#EAEAEA;stroke:#212741;stroke-width:2.8025;stroke-linejoin:round;stroke-miterlimit:2.6131;}
	
		.st1{fill-rule:evenodd;clip-rule:evenodd;fill:#EAEAEA;stroke:#212741;stroke-width:2.8025;stroke-linejoin:round;stroke-miterlimit:2.6131;}
	.st2{fill:#FFB20C;stroke:#212741;stroke-width:2.1019;stroke-linejoin:round;stroke-miterlimit:2.6131;}
	.st3{fill-rule:evenodd;clip-rule:evenodd;fill:#212741;}
	.st4{fill:none;stroke:#212741;stroke-width:2.8025;stroke-linecap:round;}
</style>
<g>
	<path class="st0" d="M15.9,69.2c2.9,0,5.3-2.4,5.3-5.3c0-2.9-2.4-5.3-5.3-5.3s-5.3,2.4-5.3,5.3C10.6,66.8,13,69.2,15.9,69.2z"/>
	<path class="st1" d="M22.5,74.1H9.2c-2.3,0-4.2,2.2-4.2,5V84c2.9,2.6,6.7,4.1,10.9,4.1c4.2,0,8-1.6,10.9-4.1V79
		C26.7,76.3,24.8,74.1,22.5,74.1z"/>
	<path class="st0" d="M60.7,28.5c2.9,0,5.3-2.4,5.3-5.3c0-2.9-2.4-5.3-5.3-5.3c-2.9,0-5.3,2.4-5.3,5.3
		C55.4,26.2,57.8,28.5,60.7,28.5z"/>
	<path class="st1" d="M67.3,33.4H54.1c-2.3,0-4.2,2.2-4.2,5v4.9c2.9,2.6,6.7,4.1,10.9,4.1s8-1.6,10.9-4.1v-4.9
		C71.6,35.7,69.7,33.4,67.3,33.4z"/>
	<path class="st0" d="M104.1,70.6c2.9,0,5.3-2.4,5.3-5.3c0-2.9-2.4-5.3-5.3-5.3s-5.3,2.4-5.3,5.3C98.9,68.2,101.2,70.6,104.1,70.6z"
		/>
	<path class="st1" d="M110.8,75.5H97.5c-2.3,0-4.2,2.2-4.2,5v4.9c2.9,2.6,6.7,4.1,10.9,4.1s8-1.6,10.9-4.1v-4.9
		C115,77.7,113.1,75.5,110.8,75.5z"/>
	<path class="st2" d="M60.9,66.7c1.7-3.5,3.5-4.5,7-4.5c3.8,0,7,3.1,7,7c0,7-7,13.9-13.9,20.9C54,83,47,76.1,47,69.1
		c0-3.8,3.1-7,7-7C57.5,62.2,59.2,63.2,60.9,66.7z"/>
	<path class="st3" d="M60.3,81.3c1.3-0.3,1.9,0.6,2.9,0.8c1.3,0.4,2.2-0.6,1.8-1.9c-0.3-1.1-1.2-1.6-1.8-2.3
		c-1.3-1.6-2.6-3.4-4.6-0.6c-0.6,0.9-1.3,1.3-1.9,2.2c-0.7,1-0.7,2.4,0.5,2.7C58.4,82.5,59.3,81.5,60.3,81.3L60.3,81.3L60.3,81.3z"
		/>
	<path class="st3" d="M64.3,73.1c1-3.3-2.2-4.6-3.1-1.5C60.2,75.1,63.3,76.3,64.3,73.1z"/>
	<path class="st3" d="M57.1,73c0.7,3.1,4,2.3,3.2-1.1C59.5,68.7,56.3,69.5,57.1,73z"/>
	<path class="st3" d="M54.1,75.2c0.2,2.6,4.1,4.2,3.8,1.2C57.6,73.9,53.8,72.3,54.1,75.2z"/>
	<path class="st3" d="M67.2,75.9c1.1-3.1-2.6-3-3.5-0.2c-0.4,1.2,0,2.5,1.5,2.1C65.9,77.7,67,76.6,67.2,75.9L67.2,75.9L67.2,75.9z"
		/>
	<path class="st4" d="M16,53.5c0-11.3,15.5-29.2,30.7-29.2"/>
	<path class="st4" d="M75.4,23c11.3-0.4,29.7,14.6,30.1,29.7"/>
</g>
</svg>
