<?xml version="1.0" encoding="utf-8"?>
<!-- Generator: Adobe Illustrator 26.0.1, SVG Export Plug-In . SVG Version: 6.00 Build 0)  -->
<svg version="1.1" id="Capa_1" xmlns="http://www.w3.org/2000/svg" xmlns:xlink="http://www.w3.org/1999/xlink" x="0px" y="0px"
	 viewBox="0 0 120 120" style="enable-background:new 0 0 120 120;" xml:space="preserve">
<style type="text/css">
	.st0{fill:#EAEAEA;stroke:#212741;stroke-width:2.5263;}
	.st1{fill:none;stroke:#212741;stroke-width:2.5263;}
	.st2{fill:#EAEAEA;}
	.st3{fill:#212741;}
	.st4{clip-path:url(#SVGID_00000053540586486607788860000001731999663458678447_);}
	.st5{fill:#FFB20C;}
</style>
<g>
	<path class="st0" d="M43.3,39.8h34.1c1.4,0,2.5,1.1,2.5,2.5v5.7H40.7v-5.7C40.7,41,41.9,39.8,43.3,39.8z"/>
	<path class="st0" d="M43.3,102.4h34.1c1.4,0,2.5-1.1,2.5-2.5v-5.1H40.7v5.1C40.7,101.2,41.9,102.4,43.3,102.4z"/>
	<path class="st1" d="M43.3,39.8h34.1c1.4,0,2.5,1.1,2.5,2.5v57.5c0,1.4-1.1,2.5-2.5,2.5H43.3c-1.4,0-2.5-1.1-2.5-2.5V42.4
		C40.7,41,41.9,39.8,43.3,39.8z"/>
	<path class="st1" d="M43.3,39.8h34.1c1.4,0,2.5,1.1,2.5,2.5v57.5c0,1.4-1.1,2.5-2.5,2.5H43.3c-1.4,0-2.5-1.1-2.5-2.5V42.4
		C40.7,41,41.9,39.8,43.3,39.8z"/>
	<circle class="st2" cx="85.6" cy="20.3" r="12.6"/>
	<path class="st3" d="M88.9,20.7l0.4-2.6h-2.5v-1.7c0-0.7,0.3-1.4,1.5-1.4h1.1v-2.2c0,0-1-0.2-2-0.2c-2,0-3.4,1.2-3.4,3.5v2h-2.3
		v2.6h2.3V27c0.5,0.1,0.9,0.1,1.4,0.1c0.5,0,0.9,0,1.4-0.1v-6.2H88.9z"/>
	<circle class="st2" cx="85.6" cy="87.2" r="12.6"/>
	<rect x="80.6" y="83.2" class="st2" width="10.6" height="8.6"/>
	<path class="st3" d="M90.5,82.3h-9.2c-0.5,0-1,0.2-1.4,0.6s-0.6,0.9-0.6,1.4v6.6c0,0.5,0.2,1,0.6,1.4c0.4,0.4,0.9,0.6,1.4,0.6h9.2
		c0.5,0,1-0.2,1.4-0.6c0.4-0.4,0.6-0.9,0.6-1.4v-6.6c0-0.5-0.2-1-0.6-1.4C91.5,82.5,91,82.3,90.5,82.3L90.5,82.3z M90.1,83.6
		l-4.2,3.1l-4.2-3.1H90.1z M90.5,91.5h-9.2c-0.2,0-0.3-0.1-0.5-0.2c-0.1-0.1-0.2-0.3-0.2-0.5v-6.4l4.9,3.7c0.1,0.1,0.3,0.1,0.4,0.1
		c0.1,0,0.3,0,0.4-0.1l4.9-3.7v6.4c0,0.2-0.1,0.3-0.2,0.5C90.8,91.4,90.7,91.5,90.5,91.5z"/>
	<circle class="st2" cx="18.6" cy="53.1" r="12.6"/>
	<path class="st3" d="M15.1,54.4l-0.4,1.6l-1.6,0c-0.5-0.9-0.8-1.9-0.8-3c0-1,0.3-2,0.7-2.9h0l1.4,0.3l0.6,1.4
		c-0.1,0.4-0.2,0.8-0.2,1.2C14.9,53.6,15,54,15.1,54.4z"/>
	<path class="st3" d="M24.8,51.9c0.1,0.4,0.1,0.8,0.1,1.2c0,0.5,0,0.9-0.1,1.3c-0.3,1.4-1.1,2.7-2.2,3.6h0l-1.8-0.1l-0.3-1.6
		c0.7-0.4,1.3-1.1,1.6-1.9h-3.4v-2.5h3.4H24.8z"/>
	<path class="st3" d="M22.6,58L22.6,58c-1.1,0.9-2.5,1.4-4,1.4c-2.4,0-4.5-1.3-5.6-3.3l2-1.7c0.5,1.4,1.9,2.4,3.5,2.4
		c0.7,0,1.3-0.2,1.9-0.5L22.6,58z"/>
	<path class="st3" d="M22.7,48.2l-2,1.7c-0.6-0.4-1.3-0.6-2-0.6c-1.6,0-3,1.1-3.6,2.5L13,50.2h0c1.1-2,3.2-3.4,5.6-3.4
		C20.2,46.8,21.6,47.3,22.7,48.2z"/>
	<circle class="st2" cx="47.7" cy="20.3" r="12.6"/>
	<path class="st3" d="M50,13.9c-0.7,0-1.5,0.5-1.9,1c-0.4,0.5-0.8,1.3-0.6,2c0.7,0,1.5-0.4,1.9-1C49.8,15.5,50.1,14.7,50,13.9z"/>
	<path class="st3" d="M52.6,18.2c-0.6-0.8-1.6-1.3-2.4-1.3c-1.1,0-1.6,0.5-2.4,0.5c-0.8,0-1.4-0.5-2.4-0.5c-1,0-2,0.6-2.6,1.6
		c-0.9,1.4-0.8,4.1,0.7,6.3c0.5,0.8,1.2,1.7,2.2,1.7c0.8,0,1.1-0.5,2.2-0.5c1.1,0,1.3,0.5,2.1,0.5c0.9,0,1.7-1,2.2-1.8
		c0.4-0.6,0.5-0.9,0.8-1.5C50.9,22.4,50.5,19.4,52.6,18.2z"/>
	<circle class="st2" cx="101.4" cy="53.1" r="12.6"/>
	<g>
		<defs>
			<rect id="SVGID_1_" x="95.1" y="45.9" width="12.6" height="14.5"/>
		</defs>
		<clipPath id="SVGID_00000067236880815459666200000010339156378070371745_">
			<use xlink:href="#SVGID_1_"  style="overflow:visible;"/>
		</clipPath>
		<g style="clip-path:url(#SVGID_00000067236880815459666200000010339156378070371745_);">
			<path class="st3" d="M101.4,49.9c-1.8,0-3.2,1.5-3.2,3.3c0,1.8,1.4,3.3,3.2,3.3c1.8,0,3.2-1.5,3.2-3.3
				C104.6,51.4,103.2,49.9,101.4,49.9z M101.4,55.3c-1.2,0-2.1-0.9-2.1-2.1c0-1.2,0.9-2.1,2.1-2.1c1.2,0,2.1,0.9,2.1,2.1
				C103.5,54.4,102.5,55.3,101.4,55.3L101.4,55.3z M105.5,49.8c0,0.4-0.3,0.8-0.8,0.8c-0.4,0-0.8-0.3-0.8-0.8c0-0.4,0.3-0.8,0.8-0.8
				C105.2,49,105.5,49.4,105.5,49.8z M107.6,50.6c0-1-0.3-1.9-1-2.7c-0.7-0.7-1.6-1-2.6-1c-1-0.1-4.2-0.1-5.2,0c-1,0-1.9,0.3-2.6,1
				c-0.7,0.7-1,1.6-1,2.7c-0.1,1-0.1,4.2,0,5.2c0,1,0.3,1.9,1,2.7c0.7,0.7,1.6,1,2.6,1c1,0.1,4.2,0.1,5.2,0c1,0,1.9-0.3,2.6-1
				c0.7-0.7,1-1.6,1-2.7C107.7,54.8,107.7,51.6,107.6,50.6L107.6,50.6z M106.3,56.9c-0.2,0.6-0.6,1-1.2,1.2
				c-0.8,0.3-2.8,0.3-3.7,0.3s-2.9,0.1-3.7-0.3c-0.6-0.2-1-0.6-1.2-1.2c-0.3-0.8-0.3-2.8-0.3-3.7c0-0.9-0.1-2.9,0.3-3.7
				c0.2-0.6,0.6-1,1.2-1.2c0.8-0.3,2.8-0.3,3.7-0.3s2.9-0.1,3.7,0.3c0.6,0.2,1,0.6,1.2,1.2c0.3,0.8,0.3,2.8,0.3,3.7
				C106.6,54.1,106.6,56.1,106.3,56.9z"/>
		</g>
	</g>
	<circle class="st5" cx="60.7" cy="71.8" r="9.9"/>
	<path class="st3" d="M60.7,59.7c-2.4,0-4.7,0.7-6.7,2c-2,1.3-3.5,3.2-4.5,5.4c-0.9,2.2-1.2,4.6-0.7,7c0.5,2.3,1.6,4.5,3.3,6.2
		c1.7,1.7,3.9,2.8,6.2,3.3c2.3,0.5,4.8,0.2,7-0.7c2.2-0.9,4.1-2.5,5.4-4.5c1.3-2,2-4.3,2-6.7c0-1.6-0.3-3.2-0.9-4.6
		c-0.6-1.5-1.5-2.8-2.6-3.9c-1.1-1.1-2.5-2-3.9-2.6C63.9,60,62.3,59.7,60.7,59.7L60.7,59.7z M60.7,81.5c-1.9,0-3.8-0.6-5.4-1.6
		c-1.6-1.1-2.8-2.6-3.6-4.3c-0.7-1.8-0.9-3.7-0.6-5.6c0.4-1.9,1.3-3.6,2.7-5c1.4-1.4,3.1-2.3,5-2.7c1.9-0.4,3.8-0.2,5.6,0.6
		c1.8,0.7,3.3,2,4.3,3.6c1.1,1.6,1.6,3.5,1.6,5.4c0,2.6-1,5-2.8,6.8C65.8,80.5,63.3,81.5,60.7,81.5L60.7,81.5z"/>
	<path class="st3" d="M63.6,67.1L59,73.1l-2-2.6c-0.2-0.3-0.5-0.4-0.8-0.5c-0.3,0-0.6,0-0.9,0.2c-0.3,0.2-0.4,0.5-0.5,0.8
		c0,0.3,0,0.6,0.2,0.9l2.9,3.8c0.1,0.1,0.3,0.3,0.4,0.3c0.2,0.1,0.3,0.1,0.5,0.1c0.2,0,0.4,0,0.5-0.1c0.2-0.1,0.3-0.2,0.4-0.3
		l5.5-7.3c0.2-0.3,0.3-0.6,0.2-0.9c0-0.3-0.2-0.6-0.5-0.8c-0.3-0.2-0.6-0.3-0.9-0.2C64.1,66.6,63.8,66.8,63.6,67.1L63.6,67.1z"/>
</g>
</svg>
