<?xml version="1.0" encoding="utf-8"?>
<!-- Generator: Adobe Illustrator 26.0.1, SVG Export Plug-In . SVG Version: 6.00 Build 0)  -->
<svg version="1.1" id="Capa_1" xmlns="http://www.w3.org/2000/svg" xmlns:xlink="http://www.w3.org/1999/xlink" x="0px" y="0px"
	 viewBox="0 0 120 120" style="enable-background:new 0 0 120 120;" xml:space="preserve">
<style type="text/css">
	.st0{fill:#EAEAEA;stroke:#212741;stroke-width:2.7904;}
	.st1{fill:none;stroke:#212741;stroke-width:2.7904;}
	.st2{fill:#FFB20C;}
	.st3{fill:#212741;}
	.st4{fill:#EAEAEA;}
</style>
<g>
	<path class="st0" d="M24.8,27.3h37.7c1.5,0,2.8,1.2,2.8,2.8v6.3H22v-6.3C22,28.5,23.2,27.3,24.8,27.3z"/>
	<path class="st0" d="M24.8,96.3h37.7c1.5,0,2.8-1.2,2.8-2.8V88H22v5.6C22,95.1,23.2,96.3,24.8,96.3z"/>
	<path class="st1" d="M24.8,27.3h37.7c1.5,0,2.8,1.2,2.8,2.8v63.5c0,1.5-1.2,2.8-2.8,2.8H24.8c-1.5,0-2.8-1.2-2.8-2.8V30.1
		C22,28.5,23.2,27.3,24.8,27.3z"/>
	<path class="st1" d="M24.8,27.3h37.7c1.5,0,2.8,1.2,2.8,2.8v63.5c0,1.5-1.2,2.8-2.8,2.8H24.8c-1.5,0-2.8-1.2-2.8-2.8V30.1
		C22,28.5,23.2,27.3,24.8,27.3z"/>
	<circle class="st2" cx="44" cy="62.5" r="11"/>
	<path class="st3" d="M44.1,49.2c-2.6,0-5.2,0.8-7.4,2.3c-2.2,1.5-3.9,3.6-4.9,6c-1,2.4-1.3,5.1-0.8,7.7c0.5,2.6,1.8,5,3.7,6.8
		c1.9,1.9,4.3,3.1,6.8,3.7c2.6,0.5,5.3,0.3,7.7-0.8c2.4-1,4.5-2.7,6-4.9c1.5-2.2,2.3-4.8,2.3-7.4c0-1.8-0.3-3.5-1-5.1
		c-0.7-1.6-1.7-3.1-2.9-4.3c-1.2-1.2-2.7-2.2-4.3-2.9S45.8,49.2,44.1,49.2L44.1,49.2z M44.1,73.3c-2.1,0-4.2-0.6-5.9-1.8
		c-1.8-1.2-3.1-2.8-3.9-4.8c-0.8-2-1-4.1-0.6-6.2c0.4-2.1,1.4-4,2.9-5.5c1.5-1.5,3.4-2.5,5.5-2.9c2.1-0.4,4.2-0.2,6.2,0.6
		c2,0.8,3.6,2.2,4.8,3.9c1.2,1.8,1.8,3.8,1.8,5.9c0,2.8-1.1,5.6-3.1,7.6C49.6,72.2,46.9,73.3,44.1,73.3L44.1,73.3z"/>
	<path class="st3" d="M44,70.1c-0.3,0-0.6-0.1-0.8-0.2L37.7,66c-0.3-0.2-0.5-0.5-0.6-0.9c-0.1-0.4,0-0.7,0.2-1
		c0.1-0.1,0.2-0.3,0.4-0.4c0.2-0.1,0.3-0.2,0.5-0.2c0.2,0,0.4,0,0.5,0s0.3,0.1,0.5,0.2L44,67l4.7-3.5c0.3-0.2,0.7-0.3,1-0.3
		c0.4,0.1,0.7,0.2,0.9,0.5c0.2,0.3,0.3,0.7,0.3,1c-0.1,0.4-0.2,0.7-0.5,0.9l-5.5,4.1C44.6,70,44.3,70.1,44,70.1L44,70.1z"/>
	<path class="st3" d="M44,67.3c-0.4,0-0.7-0.1-1-0.4c-0.3-0.3-0.4-0.6-0.4-1V55c0-0.4,0.1-0.7,0.4-1c0.3-0.3,0.6-0.4,1-0.4
		c0.4,0,0.7,0.1,1,0.4c0.3,0.3,0.4,0.6,0.4,1v11c0,0.4-0.1,0.7-0.4,1C44.7,67.2,44.4,67.3,44,67.3z"/>
	<g>
		<path class="st4" d="M47.5,66l5.6-3.8l15.7,15.7l-7-9.4l4.5-3.1l7-3.1l11.5-1l11.5,14.6L89,91.1l-14,6.3l-20.2-8l0.7-5.6l10.8,3.1
			l-3-5.9L47.5,66z"/>
		<path class="st3" d="M86.4,60.2L86,59.8c-2.2-2.2-5.8-2.2-8,0c-0.5,0.5-0.9,1.1-1.2,1.7c-2.2-1.4-5.2-1.2-7.1,0.7
			c-0.5,0.5-0.9,1.1-1.2,1.8c-2.2-1.2-5-0.9-6.9,1c-0.5,0.5-0.9,1.1-1.1,1.7l-4.8-4.8c-2.2-2.2-5.8-2.2-8,0c-2.2,2.2-2.2,5.8,0,8
			l11.7,11.7C58,81.4,56.4,81.5,55,82c-1.5,0.6-2.6,1.8-3.2,3.5c-1,3,0.6,6.2,3.6,7.2l15,5.1c0.4,0.1,10.2,3.2,16.3-2.8l7.1-7.1
			c5.6-5.6,5.6-14.7-0.1-20.3L86.4,60.2L86.4,60.2L86.4,60.2z M91.2,85.2l-7.1,7.1c-4.4,4.4-12.2,2-12.5,1.9l-14.9-5.1
			c-1-0.3-1.6-1.5-1.2-2.5c0.2-0.6,0.5-0.9,1-1.2c2.1-0.9,6.4,0.6,8.7,1.7l1.7,0.9l1.5-3.1L50.5,67.2c-0.7-0.7-0.7-1.9,0-2.7
			s1.9-0.7,2.7,0l15.3,15.3l0,0l2.6-2.6l0,0l-6.7-6.7c-0.7-0.7-0.8-2.1,0-2.8c0.8-0.8,2-0.8,2.7-0.1l2.7,2.7l4.6,4.6l2.7-2.7
			l-4.6-4.6c-0.7-0.7-0.7-1.9,0-2.7c0.7-0.7,1.9-0.7,2.7,0l2.9,2.9l2.9,2.9l2.7-2.7l-2.9-2.9c-0.7-0.7-0.7-1.9,0-2.7s1.9-0.7,2.7,0
			l1.9,1.9l0,0l5.8,5.8C95.3,74.4,95.3,81.1,91.2,85.2z"/>
	</g>
</g>
</svg>
