<?xml version="1.0" encoding="utf-8"?>
<!-- Generator: Adobe Illustrator 26.0.1, SVG Export Plug-In . SVG Version: 6.00 Build 0)  -->
<svg version="1.1" id="Capa_1" xmlns="http://www.w3.org/2000/svg" xmlns:xlink="http://www.w3.org/1999/xlink" x="0px" y="0px"
	 viewBox="0 0 167.8 114.1" style="enable-background:new 0 0 167.8 114.1;" xml:space="preserve">
<style type="text/css">
	.st0{fill:#5D5D5D;}
</style>
<g>
	<path class="st0" d="M107.8,35c0.4-1.3,0.2-2.6-0.4-3.8c-0.1-0.2-0.3-0.4-0.4-0.6c1.5-0.5,2.6-1.8,3.1-3.3c0.4-1.3,0.2-2.6-0.4-3.8
		c-0.6-1.2-1.7-2-3-2.4c-1.2-0.3-2.5-0.2-3.6,0.3c-0.9,0.5-1.7,1.2-2.2,2.1l-15.1-4.4c0.1-1.1-0.1-2.1-0.6-3.1c-0.6-1.2-1.7-2-3-2.4
		s-2.6-0.2-3.8,0.4c-1.2,0.6-2,1.7-2.4,3s-0.2,2.6,0.4,3.8c0.1,0.2,0.3,0.4,0.4,0.6c-1.5,0.5-2.6,1.8-3.1,3.3
		c-0.4,1.3-0.2,2.6,0.4,3.8c0.6,1.2,1.7,2,3,2.4s2.6,0.2,3.8-0.4c1-0.5,1.7-1.3,2.2-2.3l15,4.3c-0.2,1.2-0.1,2.4,0.5,3.4
		c0.6,1.2,1.7,2,3,2.4C104.2,39.1,107,37.6,107.8,35z M101.9,37.1c-0.9-0.3-1.7-0.9-2.2-1.8s-0.6-1.9-0.3-2.8c0-0.1,0-0.1,0.1-0.2
		c0.1-0.2,0-0.4,0-0.5c-0.1-0.2-0.2-0.3-0.4-0.3l-16.2-4.7c-0.3-0.1-0.7,0.1-0.8,0.4c-0.6,1.9-2.6,3-4.5,2.4
		c-0.9-0.3-1.7-0.9-2.2-1.8s-0.6-1.9-0.3-2.8c0.4-1.4,1.7-2.5,3.1-2.6c0.3,0,0.5-0.2,0.6-0.5c0.1-0.2,0-0.4-0.1-0.5
		c0-0.1-0.1-0.1-0.2-0.2c-0.4-0.3-0.7-0.7-0.9-1.1c-0.5-0.9-0.6-1.9-0.3-2.8c0.3-0.9,0.9-1.7,1.8-2.2s1.9-0.6,2.8-0.3
		c0.9,0.3,1.7,0.9,2.2,1.8c0.5,0.8,0.6,1.8,0.3,2.7c-0.1,0.3,0.1,0.7,0.5,0.8l16.2,4.7c0.3,0.1,0.7-0.1,0.8-0.4
		c0.7-1.8,2.6-2.7,4.5-2.2c0.9,0.3,1.7,0.9,2.2,1.8s0.6,1.9,0.3,2.8c-0.4,1.4-1.7,2.5-3.1,2.6c-0.3,0-0.5,0.2-0.6,0.5s0,0.5,0.2,0.7
		c0.4,0.3,0.7,0.7,0.9,1.1c0.5,0.9,0.6,1.9,0.3,2.8C105.9,36.5,103.9,37.7,101.9,37.1z"/>
	<path class="st0" d="M91,23.7c0.1-0.4-0.1-0.7-0.5-0.8l-4.2-1.2c-0.4-0.1-0.7,0.1-0.8,0.5c-0.1,0.2,0,0.4,0.1,0.5S85.8,23,86,23
		l4.2,1.2C90.5,24.2,90.8,24,91,23.7z"/>
	<path class="st0" d="M92.9,24.2c0.1-0.4-0.1-0.7-0.5-0.8l0,0c-0.4-0.1-0.7,0.1-0.8,0.5c-0.1,0.2,0,0.4,0.1,0.5s0.2,0.3,0.4,0.3l0,0
		C92.4,24.8,92.8,24.6,92.9,24.2z"/>
</g>
<g>
	<path class="st0" d="M42.9,63.7c-1.9-1.6-4.5-2.1-6.9-1.3c-2.4,0.8-4.2,2.7-4.8,5.1l-1.5,5.8c-0.3,1-0.2,2,0.2,2.9s1,1.7,1.9,2.2
		s1.8,0.8,2.8,0.7c1-0.1,1.9-0.5,2.7-1.1l0,0c1.9-1.6,4.4-2.4,6.9-2.2c0.6,0.1,1.3,0,1.9-0.2c0.3-0.1,0.6-0.2,0.9-0.4
		c0.9-0.5,1.5-1.3,1.9-2.2c0.4-0.9,0.5-1.9,0.2-2.9c-0.2-1-0.8-1.8-1.5-2.5L42.9,63.7z M47.3,72.2c-0.5,1.2-1.7,1.9-2.9,1.7
		c-1.5-0.2-3,0-4.4,0.5s-2.7,1.2-3.9,2.2l0,0c-1,0.8-2.3,0.9-3.4,0.3c-1.1-0.7-1.6-1.9-1.3-3.2l1.5-5.8c0.5-1.8,1.9-3.3,3.7-3.9
		s3.8-0.2,5.2,1l4.6,3.8C47.4,69.7,47.8,71,47.3,72.2z"/>
	<path class="st0" d="M29,68.2c0.8-0.6,1.3-1.6,1.3-2.7s-0.3-2.1-1-3s-1.7-1.5-2.7-1.7c-1.1-0.2-2.1,0-2.9,0.7
		c-1.6,1.3-1.7,3.9-0.3,5.7c1.2,1.5,3,2,4.5,1.6C28.3,68.6,28.6,68.4,29,68.2z M24.7,66.1c-0.9-1.1-0.9-2.5,0-3.2
		c0.2-0.1,0.3-0.2,0.5-0.3c0.3-0.1,0.6-0.1,1,0c0.6,0.1,1.2,0.5,1.6,1c0.4,0.5,0.7,1.2,0.7,1.8c0,0.6-0.2,1.1-0.6,1.4l0,0
		C27,67.5,25.6,67.2,24.7,66.1z"/>
	<path class="st0" d="M33.8,62.5c2.3-0.7,3.5-3.5,2.7-6.1s-3.4-4.2-5.7-3.4c-2.3,0.7-3.5,3.5-2.7,6.1C28.9,61.7,31.5,63.2,33.8,62.5
		z M31.2,54.6c1.4-0.4,3,0.6,3.5,2.3c0.5,1.7-0.1,3.5-1.5,3.9s-3-0.6-3.5-2.3S29.9,55,31.2,54.6z"/>
	<path class="st0" d="M41.4,61.3L41.4,61.3c0.4,0,0.8-0.1,1.1-0.2c1.7-0.5,2.9-2.3,3-4.4c0-1.2-0.4-2.3-1.1-3.2
		c-0.8-0.9-1.8-1.4-2.9-1.4c-1.1,0-2.1,0.5-2.9,1.4c-0.7,0.9-1.2,2-1.2,3.2C37.4,59.2,39.1,61.3,41.4,61.3L41.4,61.3z M39.1,56.7
		c0-0.8,0.3-1.5,0.7-2.1c0.4-0.5,1-0.8,1.6-0.8s1.1,0.3,1.6,0.8s0.7,1.3,0.7,2.1c0,1.6-1.1,2.8-2.3,2.8
		C40.1,59.5,39.1,58.3,39.1,56.7z"/>
	<path class="st0" d="M50,57.9L50,57.9c-2-0.7-4.2,0.6-5,2.8c-0.8,2.2,0.2,4.6,2.2,5.3c0.7,0.2,1.5,0.2,2.2,0
		c1.2-0.4,2.3-1.4,2.8-2.8C53,61,52,58.6,50,57.9L50,57.9z M50.6,62.6c-0.4,1.3-1.7,2.1-2.7,1.7c-1.1-0.4-1.5-1.7-1.1-3
		c0.3-0.9,0.9-1.5,1.6-1.7c0.4-0.1,0.7-0.1,1.1,0C50.5,60,51,61.3,50.6,62.6L50.6,62.6z"/>
</g>
<g>
	<path class="st0" d="M142.4,92.9c0-2.5-1.2-4.8-3.3-6.2c-2.1-1.4-4.7-1.6-7-0.5l-5.5,2.5c-0.9,0.4-1.6,1.1-2.1,2s-0.7,1.9-0.5,2.8
		c0.1,1,0.6,1.9,1.3,2.6c0.7,0.7,1.6,1.2,2.6,1.3h0.1c2.5,0.4,4.7,1.9,6,4c0.4,0.5,0.8,1,1.3,1.3c0.3,0.2,0.6,0.3,0.9,0.5
		c0.9,0.3,1.9,0.4,2.9,0.1s1.8-0.9,2.4-1.6c0.6-0.8,0.9-1.7,0.9-2.7V92.9z M138.6,101.6c-1.2,0.4-2.5-0.1-3.2-1.2
		c-0.8-1.3-1.9-2.3-3.1-3.1c-1.2-0.8-2.7-1.4-4.1-1.6l0,0c-1.2-0.2-2.2-1.2-2.3-2.4c-0.2-1.3,0.5-2.5,1.7-3l5.5-2.5
		c1.7-0.8,3.7-0.6,5.3,0.4c1.6,1,2.5,2.8,2.5,4.7v6C140.6,100.2,139.8,101.3,138.6,101.6z"/>
	<path class="st0" d="M130.2,84.9c1,0.2,2.1,0,2.9-0.7c0.8-0.6,1.4-1.6,1.7-2.7c0.2-1.1,0.1-2.2-0.4-3.1c-0.5-1-1.4-1.6-2.4-1.8
		c-2-0.4-4.1,1.1-4.6,3.4c-0.4,1.8,0.3,3.6,1.7,4.5C129.4,84.6,129.8,84.8,130.2,84.9z M129.1,80.3c0.3-1.4,1.4-2.3,2.5-2
		c0.2,0,0.4,0.1,0.6,0.2c0.3,0.2,0.5,0.4,0.7,0.7c0.3,0.6,0.4,1.2,0.2,1.9c-0.1,0.7-0.5,1.3-1,1.7c-0.5,0.4-1,0.5-1.5,0.4l0,0
		C129.5,82.9,128.8,81.7,129.1,80.3z"/>
	<path class="st0" d="M137.6,85c2,1.3,4.9,0.5,6.4-1.8s1.1-5.3-0.9-6.6c-2-1.3-4.9-0.5-6.4,1.8C135.2,80.7,135.6,83.7,137.6,85z
		 M142.1,78.1c1.2,0.8,1.4,2.7,0.4,4.2s-2.8,2.1-4,1.3c-1.2-0.8-1.4-2.7-0.4-4.2C139.1,77.9,140.9,77.3,142.1,78.1z"/>
	<path class="st0" d="M143.3,90.2L143.3,90.2c0.2,0.3,0.5,0.6,0.8,0.8c1.5,1,3.6,0.8,5.3-0.5c0.9-0.7,1.6-1.8,1.8-2.9
		c0.2-1.2,0-2.3-0.7-3.1c-0.7-0.9-1.7-1.4-2.9-1.4c-1.1,0-2.3,0.4-3.2,1.1C142.4,85.8,141.9,88.5,143.3,90.2L143.3,90.2z
		 M145.5,85.6c0.6-0.5,1.3-0.7,2.1-0.7c0.7,0,1.2,0.3,1.6,0.7c0.4,0.5,0.5,1.1,0.4,1.7c-0.1,0.7-0.6,1.4-1.2,1.8c-1.2,1-2.9,1-3.6,0
		C143.9,88.1,144.3,86.5,145.5,85.6z"/>
	<path class="st0" d="M151.4,94.8L151.4,94.8c-0.7-2-3.1-2.9-5.3-2c-2.2,0.8-3.4,3.1-2.7,5c0.3,0.7,0.7,1.3,1.4,1.7
		c1.1,0.7,2.6,0.9,4,0.4C150.9,99,152.1,96.7,151.4,94.8L151.4,94.8z M148.1,98.2c-1.3,0.5-2.7,0-3.1-1s0.4-2.3,1.7-2.8
		c0.9-0.3,1.8-0.2,2.4,0.2c0.3,0.2,0.6,0.5,0.7,0.8C150.1,96.4,149.4,97.7,148.1,98.2L148.1,98.2z"/>
</g>
<g>
	<path class="st0" d="M86.5,71.3c-2.3,0-4.1-1.9-4.1-4.1s1.9-4.1,4.1-4.1s4.1,1.9,4.1,4.1S88.7,71.3,86.5,71.3z M86.5,64.5
		c-1.5,0-2.6,1.2-2.6,2.6s1.2,2.6,2.6,2.6s2.6-1.2,2.6-2.6S87.9,64.5,86.5,64.5z"/>
</g>
<g>
	<path class="st0" d="M147.4,34.3c-2.3,0-4.1-1.9-4.1-4.1s1.9-4.1,4.1-4.1c2.2,0,4.1,1.9,4.1,4.1S149.7,34.3,147.4,34.3z
		 M147.4,27.5c-1.5,0-2.6,1.2-2.6,2.6s1.2,2.6,2.6,2.6c1.4,0,2.6-1.2,2.6-2.6S148.8,27.5,147.4,27.5z"/>
</g>
<g>
	<path class="st0" d="M29.5,27c-2.3,0-4.1-1.9-4.1-4.1s1.9-4.1,4.1-4.1s4.1,1.9,4.1,4.1S31.8,27,29.5,27z M29.5,20.3
		c-1.5,0-2.6,1.2-2.6,2.6s1.2,2.6,2.6,2.6s2.6-1.2,2.6-2.6S31,20.3,29.5,20.3z"/>
</g>
</svg>
